<svg width="100%" height="100%" viewBox="0 0 1003 1285" version="1.1" xmlns="http://www.w3.org/2000/svg" xmlns:xlink="http://www.w3.org/1999/xlink" xml:space="preserve" xmlns:serif="http://www.serif.com/" style="fill-rule:evenodd;clip-rule:evenodd;stroke-linecap:round;stroke-miterlimit:1.5;">
    <g transform="matrix(1,0,0,1,-4812.86,-6116.58)">
        <g id="Day-17" transform="matrix(1,0,0,0.921502,4812.86,2757.78)">
            <rect x="0.003" y="3644.93" width="1002.6" height="1393.6" style="fill:white;"/>
            <clipPath id="_clip1">
                <rect x="0.003" y="3644.93" width="1002.6" height="1393.6"/>
            </clipPath>
            <g clip-path="url(#_clip1)">
                <g transform="matrix(0.999997,0,0,1.35814,0.00674059,3625.97)">
                    <rect x="0" y="13.958" width="1002.6" height="1026.11" style="stroke:rgb(252,250,255);stroke-width:0.35px;"/>
                </g>
                <g transform="matrix(0.999997,0,0,1.08519,-4812.85,-2992.7)">
                    <path d="M5314.16,6232.57C5314.16,6232.57 5595.62,6222.25 5700.5,6466.49C5700.5,6466.49 5768.59,6646.83 5728.59,6779.23C5728.59,6779.23 5728.59,6779.23 5728.59,6779.23C5712.22,6824.38 5682.23,6863.32 5642.76,6890.68C5604.13,6917.47 5561.31,6947.15 5561.31,6947.15C5561.31,6947.15 5504.37,7115.95 5473.03,7163.74L5428.69,7167.82L5434.44,7009.68L5402.54,7016.8L5396.15,7166.34L5342.69,7180.67L5337.11,7021.79L5305.44,7020.3L5297.52,7182.36L5233.55,7169.2L5232.96,7019.72L5202.27,7014.3L5199.61,7165.62L5157.5,7165.12C5157.5,7165.12 5092.1,7022.22 5068.18,6942.17C5068.18,6942.17 5044.25,6926.66 5015.9,6908.29C4926.01,6850.03 4878.57,6744.52 4894.66,6638.62C4894.66,6638.62 4894.66,6638.62 4894.66,6638.62C4894.66,6638.62 4909.52,6459.07 5001.83,6350.65C5001.83,6350.65 5111.48,6230.31 5314.16,6232.57Z" style="fill:white;"/>
                    <path d="M4876.78,6636.48C4859.89,6749.2 4910.45,6861.39 5006.11,6923.39C5006.11,6923.39 5052.89,6953.71 5052.89,6953.71C5078.46,7035.56 5141.14,7172.61 5141.14,7172.61C5144.03,7178.94 5150.33,7183.04 5157.29,7183.12L5199.4,7183.62C5206.74,7183.71 5213.11,7179.39 5215.98,7173.11C5217.49,7179.91 5222.87,7185.38 5229.92,7186.83L5293.89,7199.99C5299.04,7201.05 5304.39,7199.81 5308.55,7196.59C5312.7,7193.37 5315.24,7188.49 5315.49,7183.24L5320.89,7072.9L5324.7,7181.3C5324.89,7186.78 5327.57,7191.87 5331.98,7195.14C5336.39,7198.4 5342.05,7199.47 5347.35,7198.05L5400.81,7183.73C5405.77,7182.4 5409.78,7179.07 5412.07,7174.73C5413.03,7177.04 5414.46,7179.14 5416.32,7180.9C5420.08,7184.45 5425.18,7186.22 5430.34,7185.75L5474.68,7181.67C5480.14,7181.17 5485.07,7178.2 5488.08,7173.61C5516.57,7130.16 5566.05,6988.69 5576.43,6958.57C5576.43,6958.57 5653.02,6905.48 5653.02,6905.48C5695.55,6875.99 5727.87,6834.02 5745.51,6785.36L5745.45,6785.51C5745.59,6785.15 5745.71,6784.8 5745.82,6784.44C5787.29,6647.16 5717.34,6460.13 5717.34,6460.13C5717.25,6459.88 5717.15,6459.63 5717.04,6459.38C5610.09,6210.33 5327.66,6214.23 5314.02,6214.57L5314.03,6214.57C5102.63,6212.34 4988.53,6338.53 4988.53,6338.53C4988.39,6338.68 4988.26,6338.83 4988.13,6338.98C4895.82,6447.4 4877.91,6624.33 4876.78,6636.48ZM5314.16,6232.57C5314.16,6232.57 5595.62,6222.25 5700.5,6466.49C5700.5,6466.49 5768.59,6646.83 5728.59,6779.23C5728.59,6779.23 5728.59,6779.23 5728.59,6779.23C5712.22,6824.38 5682.23,6863.32 5642.76,6890.68C5604.13,6917.47 5561.31,6947.15 5561.31,6947.15C5561.31,6947.15 5504.37,7115.95 5473.03,7163.74L5428.69,7167.82L5434.44,7009.68L5402.54,7016.8L5396.15,7166.34L5342.69,7180.67L5337.11,7021.79L5305.44,7020.3L5297.52,7182.36L5233.55,7169.2L5232.96,7019.72L5202.27,7014.3L5199.61,7165.62L5157.5,7165.12C5157.5,7165.12 5092.1,7022.22 5068.18,6942.17C5068.18,6942.17 5044.25,6926.66 5015.9,6908.29C4926.01,6850.03 4878.57,6744.52 4894.66,6638.62C4894.66,6638.62 4894.66,6638.62 4894.66,6638.62C4894.66,6638.62 4909.52,6459.07 5001.83,6350.65C5001.83,6350.65 5111.48,6230.31 5314.16,6232.57ZM5745.2,6786.14C5743.82,6789.47 5741.5,6792.24 5738.61,6794.18C5735.71,6796.12 5732.25,6797.23 5728.59,6797.23C5728.59,6797.23 5740.32,6798.27 5745.2,6786.14ZM4882.17,6625.66C4880.62,6627.14 4879.51,6628.62 4878.69,6630.15C4877.88,6631.68 4877.37,6633.26 4877.05,6634.9C4877.81,6631.27 4879.65,6628.09 4882.17,6625.66ZM4882.51,6625.34L4882.44,6625.4L4882.62,6625.25L4882.51,6625.34ZM4885.7,6623.01C4885.23,6623.28 4884.8,6623.55 4884.4,6623.83C4884,6624.1 4883.64,6624.39 4883.29,6624.67C4884.05,6624.06 4884.86,6623.5 4885.7,6623.01ZM4885.92,6622.88L4885.73,6622.99L4886.27,6622.7L4885.92,6622.88ZM4886.65,6622.5L4886.56,6622.55L4886.84,6622.41L4886.65,6622.5ZM4887.4,6622.15C4890.16,6620.93 4893.27,6620.39 4896.48,6620.72C4889.81,6620.04 4888.01,6621.89 4887.44,6622.14L4887.4,6622.15Z"/>
                </g>
                <g transform="matrix(0.999997,0,0,1.08519,-4812.85,-2992.7)">
                    <path d="M5202.27,6450.81C5202.27,6450.81 5402.36,6616.93 5443.08,6690.01C5443.08,6690.01 5218.75,6521.83 5202.27,6450.81Z" style="fill:rgb(153,8,0);"/>
                </g>
                <g transform="matrix(0.999997,0,0,1.08519,-4812.85,-2992.7)">
                    <path d="M4995.48,6863.04C4995.48,6863.04 5204.73,6660.87 5221.77,6652.75C5221.77,6652.75 5482.05,6440.69 5498.68,6440.62C5498.68,6440.62 5410.77,6530.12 5394.16,6543.43C5394.16,6543.43 5273.94,6652.28 5252.69,6668.25L4995.48,6863.04Z" style="fill:rgb(153,8,0);"/>
                </g>
                <g transform="matrix(0.999997,0,0,1.08519,-4785.28,-2990.72)">
                    <path d="M4955.69,6698.46C4955.69,6698.46 5132.06,6742.05 5225.11,6807.96C5225.11,6807.96 5124.24,6816.46 5071.77,6811.96C5058,6810.72 5045,6805.06 5034.71,6795.83C5008.42,6772.17 4953.85,6720.21 4955.69,6698.46Z" style="fill:white;"/>
                    <path d="M4959.53,6682.93C4954.98,6681.8 4950.17,6682.73 4946.36,6685.45C4942.56,6688.18 4940.14,6692.44 4939.74,6697.11C4938.98,6706.12 4943.79,6719.48 4953.9,6733.83C4971.59,6758.94 5004.93,6790.56 5024.01,6807.72C5024.01,6807.73 5024.02,6807.73 5024.03,6807.74C5036.89,6819.27 5053.13,6826.34 5070.33,6827.9C5070.36,6827.9 5070.38,6827.9 5070.41,6827.9C5123.8,6832.48 5226.46,6823.9 5226.46,6823.9C5233.15,6823.34 5238.78,6818.65 5240.55,6812.16C5242.32,6805.68 5239.85,6798.78 5234.36,6794.9C5139.41,6727.64 4959.53,6682.93 4959.53,6682.93ZM4955.69,6698.46C4955.69,6698.46 5132.06,6742.05 5225.11,6807.96C5225.11,6807.96 5124.24,6816.46 5071.77,6811.96C5058,6810.72 5045,6805.06 5034.71,6795.83C5008.42,6772.17 4953.85,6720.21 4955.69,6698.46Z"/>
                </g>
                <g transform="matrix(0.999997,0,0,1.08519,-4840.23,-2991.63)">
                    <path d="M5408.28,6806.47C5408.28,6806.47 5558.37,6712.46 5669.16,6707.43C5669.16,6707.43 5652.79,6743.9 5628.75,6773.09C5610.83,6794.72 5584.28,6807.34 5556.19,6807.56C5506.21,6807.98 5405.71,6808.53 5408.28,6806.47Z" style="fill:white;"/>
                    <path d="M5399.79,6792.91C5399.27,6793.24 5398.78,6793.59 5398.3,6793.97C5394.9,6796.69 5393.47,6799.8 5392.77,6802.45C5391.62,6806.78 5392.09,6811.13 5394.87,6815.37C5395.61,6816.5 5399.42,6822.04 5408.94,6822.94C5423.96,6824.36 5510.84,6823.94 5556.33,6823.56C5589.13,6823.3 5620.14,6808.56 5641.07,6783.3C5641.08,6783.28 5641.09,6783.27 5641.1,6783.26C5666.47,6752.46 5683.76,6713.99 5683.76,6713.99C5686.03,6708.92 5685.52,6703.03 5682.39,6698.44C5679.27,6693.84 5673.99,6691.2 5668.44,6691.45C5554.42,6696.63 5399.79,6792.91 5399.79,6792.91ZM5408.28,6806.47C5408.28,6806.47 5558.37,6712.46 5669.16,6707.43C5669.16,6707.43 5652.79,6743.9 5628.75,6773.09C5610.83,6794.72 5584.28,6807.34 5556.19,6807.56C5506.21,6807.98 5405.71,6808.53 5408.28,6806.47Z"/>
                </g>
            </g>
        </g>
    </g>
</svg>
