
<svg width="100%" height="100%" viewBox="0 0 1003 1285" version="1.1" xmlns="http://www.w3.org/2000/svg" xmlns:xlink="http://www.w3.org/1999/xlink" xml:space="preserve" xmlns:serif="http://www.serif.com/" style="fill-rule:evenodd;clip-rule:evenodd;stroke-linecap:round;stroke-miterlimit:1.5;">
    <g transform="matrix(1,0,0,1,-7483.1,-6018.49)">
        <g id="Day-19" transform="matrix(1,0,0,0.921502,7483.09,2659.69)">
            <rect x="0.003" y="3644.93" width="1002.6" height="1393.6" style="fill:rgb(36,44,156);"/>
            <clipPath id="_clip1">
                <rect x="0.003" y="3644.93" width="1002.6" height="1393.6"/>
            </clipPath>
            <g clip-path="url(#_clip1)">
                <g transform="matrix(0.999997,0,0,1.35814,0.00674059,3625.97)">
                    <rect x="0" y="13.958" width="1002.6" height="1026.11" style="fill:rgb(213,130,190);stroke:white;stroke-width:0.35px;"/>
                </g>
                <g transform="matrix(0.157938,1.11893,-1.0311,0.171392,6011.1,-5743.91)">
                    <path d="M8265.47,6314.56C8272.29,6308.83 8275.98,6300.2 8275.4,6291.31C8275.32,6290.59 8275.3,6289.86 8275.3,6289.12C8275.3,6271.55 8288.95,6257.29 8305.76,6257.29C8320.33,6257.29 8335.63,6267.14 8338.62,6281.43C8338.62,6281.43 8338.62,6281.43 8338.62,6281.43C8339.54,6285.82 8342.81,6289.34 8347.11,6290.59C8358.25,6293.68 8368.05,6302.12 8370.39,6313.26C8370.84,6315.45 8370.39,6320.44 8370.39,6322.78C8370.39,6340.35 8354.33,6352.77 8337.52,6352.77C8335.27,6352.77 8333.08,6352.52 8330.98,6352.03C8321.72,6349.9 8312,6352.23 8304.73,6358.34C8220.35,6429.2 7790.04,6790.6 7707.93,6859.55C7700.93,6865.43 7697.24,6874.36 7698.04,6883.46C7698.21,6885.32 7698.21,6887.21 7698.05,6889.14C7696.53,6906.64 7681.69,6919.66 7664.94,6918.2C7650.43,6916.94 7636.04,6905.8 7634.3,6891.31C7634.3,6891.31 7634.3,6891.31 7634.3,6891.31C7633.76,6886.85 7630.81,6883.06 7626.63,6881.44C7615.8,6877.4 7606.77,6868.14 7605.41,6856.85C7605.14,6854.62 7606.03,6849.69 7606.24,6847.36C7607.76,6829.86 7624.83,6818.87 7641.57,6820.33C7642.06,6820.37 7642.53,6820.42 7643.01,6820.49C7654,6821.94 7665.11,6818.71 7673.6,6811.57C7764.12,6735.62 8185.47,6381.75 8265.47,6314.56Z" style="fill:rgb(232,232,232);"/>
                    <path d="M7607.88,6904.36C7615.3,6927.2 7638.33,6944.76 7662.45,6946.85C7694.66,6949.66 7723.77,6925.28 7726.7,6891.63C7727,6888.14 7727.01,6884.7 7726.72,6881.34L8323.23,6380.36C8323.58,6380.07 8324.06,6379.95 8324.51,6380.06L8324.53,6380.06C8328.73,6381.02 8333.07,6381.53 8337.52,6381.53C8369.69,6381.53 8399.15,6356.4 8399.15,6322.78C8399.15,6318.99 8399.28,6310.92 8398.53,6307.36C8394.7,6289.06 8381.06,6273.85 8363.81,6266.14C8354.43,6244.02 8329.97,6228.53 8305.76,6228.53C8273.43,6228.53 8246.54,6255.34 8246.54,6289.12C8246.54,6290.35 8246.58,6291.57 8246.68,6292.78C8165.96,6360.57 7745.52,6713.68 7655.11,6789.54L7655.11,6789.55C7652.82,6791.47 7649.84,6792.35 7646.89,6791.99C7645.93,6791.86 7645,6791.76 7644.07,6791.68C7612.02,6788.89 7580.5,6811.38 7577.58,6844.86C7577.26,6848.64 7576.42,6856.67 7576.86,6860.28C7579.09,6878.84 7591.36,6895.18 7607.88,6904.36ZM8265.47,6314.56C8272.29,6308.83 8275.98,6300.2 8275.4,6291.31C8275.32,6290.59 8275.3,6289.86 8275.3,6289.12C8275.3,6271.55 8288.95,6257.29 8305.76,6257.29C8320.33,6257.29 8335.63,6267.14 8338.62,6281.43C8338.62,6281.43 8338.62,6281.43 8338.62,6281.43C8339.54,6285.82 8342.81,6289.34 8347.11,6290.59C8358.25,6293.68 8368.05,6302.12 8370.39,6313.26C8370.84,6315.45 8370.39,6320.44 8370.39,6322.78C8370.39,6340.35 8354.33,6352.77 8337.52,6352.77C8335.27,6352.77 8333.08,6352.52 8330.98,6352.03C8321.72,6349.9 8312,6352.23 8304.73,6358.34C8220.35,6429.2 7790.04,6790.6 7707.93,6859.55C7700.93,6865.43 7697.24,6874.36 7698.04,6883.46C7698.21,6885.32 7698.21,6887.21 7698.05,6889.14C7696.53,6906.64 7681.69,6919.66 7664.94,6918.2C7650.43,6916.94 7636.04,6905.8 7634.3,6891.31C7634.3,6891.31 7634.3,6891.31 7634.3,6891.31C7633.76,6886.85 7630.81,6883.06 7626.63,6881.44C7615.8,6877.4 7606.77,6868.14 7605.41,6856.85C7605.14,6854.62 7606.03,6849.69 7606.24,6847.36C7607.76,6829.86 7624.83,6818.87 7641.57,6820.33C7642.06,6820.37 7642.53,6820.42 7643.01,6820.49C7654,6821.94 7665.11,6818.71 7673.6,6811.57C7764.12,6735.62 8185.47,6381.75 8265.47,6314.56ZM8246.71,6293.12L8246.7,6293.16L8246.82,6294.52L8246.71,6293.12Z"/>
                </g>
                <g transform="matrix(1.03469,0,0,1.12283,-7746.6,-3079.09)">
                    <path d="M8265.38,6314.63C8272.24,6308.87 8275.96,6300.19 8275.4,6291.25C8275.32,6290.55 8275.3,6289.84 8275.3,6289.12C8275.3,6271.55 8288.95,6257.29 8305.76,6257.29C8320.33,6257.29 8335.63,6267.14 8338.62,6281.43C8338.62,6281.43 8338.62,6281.43 8338.62,6281.43C8339.54,6285.82 8342.81,6289.34 8347.11,6290.59C8358.25,6293.68 8368.05,6302.12 8370.39,6313.26C8370.84,6315.45 8370.39,6320.44 8370.39,6322.78C8370.39,6340.35 8354.33,6352.77 8337.52,6352.77C8335.3,6352.77 8333.13,6352.52 8331.04,6352.05C8321.73,6349.92 8311.95,6352.28 8304.64,6358.42C8220.07,6429.43 7790.32,6790.36 7708.02,6859.48C7700.98,6865.39 7697.26,6874.37 7698.05,6883.53C7698.21,6885.36 7698.21,6887.24 7698.05,6889.14C7696.53,6906.64 7681.69,6919.66 7664.94,6918.2C7650.43,6916.94 7636.04,6905.8 7634.3,6891.31C7634.3,6891.31 7634.3,6891.31 7634.3,6891.31C7633.76,6886.85 7630.81,6883.06 7626.63,6881.44C7615.8,6877.4 7606.77,6868.14 7605.41,6856.85C7605.14,6854.62 7606.03,6849.69 7606.24,6847.36C7607.76,6829.86 7624.83,6818.87 7641.57,6820.33C7642.03,6820.37 7642.49,6820.42 7642.95,6820.48C7654.01,6821.92 7665.17,6818.65 7673.71,6811.48C7764.43,6735.36 8185.19,6381.98 8265.38,6314.63Z" style="fill:rgb(232,232,232);"/>
                    <path d="M8246.44,6292.68C8165.54,6360.62 7745.68,6713.24 7655.07,6789.27L7655.07,6789.27C7652.77,6791.21 7649.78,6792.1 7646.8,6791.74C7645.88,6791.62 7644.98,6791.52 7644.09,6791.44C7611.91,6788.64 7580.27,6811.22 7577.35,6844.84C7577.02,6848.64 7576.19,6856.68 7576.62,6860.31C7578.86,6878.91 7591.14,6895.29 7607.69,6904.52C7615.16,6927.4 7638.25,6944.98 7662.43,6947.09C7694.77,6949.9 7723.99,6925.43 7726.93,6891.65C7727.23,6888.19 7727.24,6884.78 7726.96,6881.44L8323.28,6380.62C8323.64,6380.32 8324.12,6380.21 8324.57,6380.31L8324.6,6380.32C8328.78,6381.27 8333.1,6381.77 8337.52,6381.77C8369.82,6381.77 8399.38,6356.53 8399.38,6322.78C8399.38,6318.98 8399.51,6310.89 8398.76,6307.31C8394.92,6288.97 8381.27,6273.72 8363.99,6265.96C8354.55,6243.81 8330.03,6228.3 8305.76,6228.3C8273.3,6228.3 8246.3,6255.2 8246.3,6289.12C8246.3,6290.31 8246.34,6291.5 8246.44,6292.68ZM8265.38,6314.63C8272.24,6308.87 8275.96,6300.19 8275.4,6291.25C8275.32,6290.55 8275.3,6289.84 8275.3,6289.12C8275.3,6271.55 8288.95,6257.29 8305.76,6257.29C8320.33,6257.29 8335.63,6267.14 8338.62,6281.43C8338.62,6281.43 8338.62,6281.43 8338.62,6281.43C8339.54,6285.82 8342.81,6289.34 8347.11,6290.59C8358.25,6293.68 8368.05,6302.12 8370.39,6313.26C8370.84,6315.45 8370.39,6320.44 8370.39,6322.78C8370.39,6340.35 8354.33,6352.77 8337.52,6352.77C8335.3,6352.77 8333.13,6352.52 8331.04,6352.05C8321.73,6349.92 8311.95,6352.28 8304.64,6358.42C8220.07,6429.43 7790.32,6790.36 7708.02,6859.48C7700.98,6865.39 7697.26,6874.37 7698.05,6883.53C7698.21,6885.36 7698.21,6887.24 7698.05,6889.14C7696.53,6906.64 7681.69,6919.66 7664.94,6918.2C7650.43,6916.94 7636.04,6905.8 7634.3,6891.31C7634.3,6891.31 7634.3,6891.31 7634.3,6891.31C7633.76,6886.85 7630.81,6883.06 7626.63,6881.44C7615.8,6877.4 7606.77,6868.14 7605.41,6856.85C7605.14,6854.62 7606.03,6849.69 7606.24,6847.36C7607.76,6829.86 7624.83,6818.87 7641.57,6820.33C7642.03,6820.37 7642.49,6820.42 7642.95,6820.48C7654.01,6821.92 7665.17,6818.65 7673.71,6811.48C7764.43,6735.36 8185.19,6381.98 8265.38,6314.63ZM7605.51,6894.77L7605.51,6894.77C7605.51,6894.77 7605.51,6894.77 7605.51,6894.77ZM8246.47,6293.02L8246.46,6293.06L8246.59,6294.48L8246.47,6293.02Z"/>
                </g>
                <g transform="matrix(-0.861851,1.14538e-16,-1.01944e-16,-0.903352,7414.09,10853.2)">
                    <path d="M8192.82,6933.38L7864.54,6934.15C7864.54,6934.15 7865.48,6908.77 7866.43,6883.12C7867.51,6853.7 7890.86,6830.43 7919.3,6830.42C7975.97,6830.41 8067.5,6830.4 8128.04,6830.4C8162.24,6830.39 8190.29,6858.43 8191.48,6893.81C8192.2,6915.02 8192.82,6933.38 8192.82,6933.38Z" style="fill:rgb(232,232,232);"/>
                    <path d="M8192.88,6959.81C8199.79,6959.79 8206.41,6956.87 8211.2,6951.72C8216,6946.56 8218.57,6939.61 8218.33,6932.46C8218.33,6932.46 8217.71,6914.1 8216.99,6892.88C8215.32,6843.28 8175.98,6803.96 8128.04,6803.97C8067.5,6803.97 7975.97,6803.99 7919.3,6803.99C7877.15,6804 7842.53,6838.5 7840.92,6882.11C7839.97,6907.76 7839.03,6933.14 7839.03,6933.14C7838.77,6940.33 7841.34,6947.32 7846.17,6952.5C7850.99,6957.68 7857.65,6960.6 7864.6,6960.58L8192.88,6959.81ZM8192.82,6933.38L7864.54,6934.15C7864.54,6934.15 7865.48,6908.77 7866.43,6883.12C7867.51,6853.7 7890.86,6830.43 7919.3,6830.42C7975.97,6830.41 8067.5,6830.4 8128.04,6830.4C8162.24,6830.39 8190.29,6858.43 8191.48,6893.81C8192.2,6915.02 8192.82,6933.38 8192.82,6933.38Z"/>
                </g>
                <g transform="matrix(0.999997,0,0,1.08519,-7482.78,-2818.66)">
                    <path d="M7840.84,6647.51C7806.4,6633.09 7776.48,6613.51 7754.76,6590.05C7724.22,6557.06 7715.47,6516.39 7715.47,6471.63C7715.47,6356.38 7835.08,6257.29 7979.55,6257.29C8124.02,6257.29 8243.05,6348.82 8243.05,6464.07C8243.05,6505.61 8236.02,6546.04 8209.48,6578.91C8187.73,6605.86 8156.74,6628.39 8120.59,6644.84C8118.38,6645.85 8116.15,6646.83 8113.9,6647.79L8113.9,6733.3L7840.84,6733.3L7840.84,6647.51Z" style="fill:rgb(232,232,232);"/>
                    <path d="M7809.84,6667.45L7809.84,6733.3C7809.84,6750.42 7823.72,6764.3 7840.84,6764.3L8113.9,6764.3C8131.02,6764.3 8144.9,6750.42 8144.9,6733.3L8144.9,6667.57C8180.77,6649.56 8211.39,6625.91 8233.6,6598.38C8264.72,6559.84 8274.05,6512.77 8274.05,6464.07C8274.05,6333.84 8142.81,6226.29 7979.55,6226.29C7816.55,6226.29 7684.47,6341.59 7684.47,6471.63C7684.47,6524.5 7695.94,6572.14 7732.01,6611.11C7752.39,6633.12 7779.07,6652.27 7809.84,6667.45ZM7840.84,6647.51C7806.4,6633.09 7776.48,6613.51 7754.76,6590.05C7724.22,6557.06 7715.47,6516.39 7715.47,6471.63C7715.47,6356.38 7835.08,6257.29 7979.55,6257.29C8124.02,6257.29 8243.05,6348.82 8243.05,6464.07C8243.05,6505.61 8236.02,6546.04 8209.48,6578.91C8187.73,6605.86 8156.74,6628.39 8120.59,6644.84C8118.38,6645.85 8116.15,6646.83 8113.9,6647.79L8113.9,6733.3L7840.84,6733.3L7840.84,6647.51Z"/>
                </g>
                <g transform="matrix(37.0676,0,0,1.32936,-292254,-4457.69)">
                    <path d="M7896.1,6685.93C7896.1,6682.37 7896,6679.48 7895.88,6679.48L7895.46,6679.48C7895.34,6679.48 7895.24,6682.37 7895.24,6685.93L7895.24,6739.58C7895.24,6743.14 7895.34,6746.03 7895.46,6746.03L7895.88,6746.03C7896,6746.03 7896.1,6743.14 7896.1,6739.58L7896.1,6685.93Z"/>
                </g>
                <g transform="matrix(37.0676,0,0,1.32936,-292179,-4457.36)">
                    <path d="M7896.1,6685.93C7896.1,6682.37 7896,6679.48 7895.88,6679.48L7895.46,6679.48C7895.34,6679.48 7895.24,6682.37 7895.24,6685.93L7895.24,6739.58C7895.24,6743.14 7895.34,6746.03 7895.46,6746.03L7895.88,6746.03C7896,6746.03 7896.1,6743.14 7896.1,6739.58L7896.1,6685.93Z"/>
                </g>
                <g transform="matrix(37.0676,0,0,1.32936,-292104,-4457.81)">
                    <path d="M7896.1,6685.93C7896.1,6682.37 7896,6679.48 7895.88,6679.48L7895.46,6679.48C7895.34,6679.48 7895.24,6682.37 7895.24,6685.93L7895.24,6739.58C7895.24,6743.14 7895.34,6746.03 7895.46,6746.03L7895.88,6746.03C7896,6746.03 7896.1,6743.14 7896.1,6739.58L7896.1,6685.93Z"/>
                </g>
                <g transform="matrix(37.0676,0,0,0.992858,-292104,-2064.47)">
                    <path d="M7896.1,6688.11C7896.1,6683.35 7896,6679.48 7895.88,6679.48L7895.46,6679.48C7895.34,6679.48 7895.24,6683.35 7895.24,6688.11L7895.24,6737.4C7895.24,6742.16 7895.34,6746.03 7895.46,6746.03L7895.88,6746.03C7896,6746.03 7896.1,6742.16 7896.1,6737.4L7896.1,6688.11Z"/>
                </g>
                <g transform="matrix(37.0676,0,0,0.992858,-292179,-2064.47)">
                    <path d="M7896.1,6688.11C7896.1,6683.35 7896,6679.48 7895.88,6679.48L7895.46,6679.48C7895.34,6679.48 7895.24,6683.35 7895.24,6688.11L7895.24,6737.4C7895.24,6742.16 7895.34,6746.03 7895.46,6746.03L7895.88,6746.03C7896,6746.03 7896.1,6742.16 7896.1,6737.4L7896.1,6688.11Z"/>
                </g>
                <g transform="matrix(37.0676,0,0,0.992858,-292254,-2064.47)">
                    <path d="M7896.1,6688.11C7896.1,6683.35 7896,6679.48 7895.88,6679.48L7895.46,6679.48C7895.34,6679.48 7895.24,6683.35 7895.24,6688.11L7895.24,6737.4C7895.24,6742.16 7895.34,6746.03 7895.46,6746.03L7895.88,6746.03C7896,6746.03 7896.1,6742.16 7896.1,6737.4L7896.1,6688.11Z"/>
                </g>
                <g transform="matrix(0.788724,0,0,0.711692,-5818.34,-401.317)">
                    <path d="M7878,6476.74C7896.57,6476.74 7920.89,6481.17 7932.68,6493.97C7943.53,6505.75 7942.6,6525.18 7942.6,6542.6C7942.6,6578.94 7913.66,6608.44 7878,6608.44C7842.35,6608.44 7809.07,6572.76 7809.07,6536.41C7809.07,6521.32 7805.67,6508.51 7814.06,6497.4C7816.78,6493.79 7820.39,6493.16 7824.59,6490.35C7838.62,6480.95 7861.96,6476.74 7878,6476.74Z" style="fill:white;"/>
                    <path d="M7878,6437.1C7857.1,6437.1 7826.85,6443.47 7808.56,6455.71C7800.66,6460.99 7794.78,6463.96 7789.66,6470.74C7779.53,6484.15 7775.95,6498.32 7775.48,6513.96C7775.27,6520.89 7776.11,6528.35 7776.11,6536.41C7776.11,6560 7784.04,6583.76 7798.11,6603.37C7817,6629.7 7846.93,6648.09 7878,6648.09C7933.24,6648.09 7975.57,6598.9 7975.57,6542.6C7975.57,6514.08 7972.53,6483.83 7954.77,6464.55C7938.07,6446.41 7904.31,6437.1 7878,6437.1ZM7878,6476.74C7896.57,6476.74 7920.89,6481.17 7932.68,6493.97C7943.53,6505.75 7942.6,6525.18 7942.6,6542.6C7942.6,6578.94 7913.66,6608.44 7878,6608.44C7842.35,6608.44 7809.07,6572.76 7809.07,6536.41C7809.07,6521.32 7805.67,6508.51 7814.06,6497.4C7816.78,6493.79 7820.39,6493.16 7824.59,6490.35C7838.62,6480.95 7861.96,6476.74 7878,6476.74Z"/>
                </g>
                <g transform="matrix(-0.788724,0,0,0.711692,6808.51,-401.317)">
                    <path d="M7878,6476.74C7896.57,6476.74 7920.89,6481.17 7932.68,6493.97C7943.53,6505.75 7942.6,6525.18 7942.6,6542.6C7942.6,6578.94 7913.66,6608.44 7878,6608.44C7842.35,6608.44 7809.07,6572.76 7809.07,6536.41C7809.07,6521.32 7805.67,6508.51 7814.06,6497.4C7816.78,6493.79 7820.39,6493.16 7824.59,6490.35C7838.62,6480.95 7861.96,6476.74 7878,6476.74Z" style="fill:white;"/>
                    <path d="M7878,6437.1C7904.31,6437.1 7938.07,6446.41 7954.77,6464.55C7972.53,6483.83 7975.57,6514.08 7975.57,6542.6C7975.57,6598.9 7933.24,6648.09 7878,6648.09C7846.93,6648.09 7817,6629.7 7798.11,6603.37C7784.04,6583.76 7776.11,6560 7776.11,6536.41C7776.11,6528.35 7775.27,6520.89 7775.48,6513.96C7775.95,6498.32 7779.53,6484.15 7789.66,6470.74C7794.78,6463.96 7800.66,6460.99 7808.56,6455.71C7826.85,6443.47 7857.1,6437.1 7878,6437.1ZM7878,6476.74C7896.57,6476.74 7920.89,6481.17 7932.68,6493.97C7943.53,6505.75 7942.6,6525.18 7942.6,6542.6C7942.6,6578.94 7913.66,6608.44 7878,6608.44C7842.35,6608.44 7809.07,6572.76 7809.07,6536.41C7809.07,6521.32 7805.67,6508.51 7814.06,6497.4C7816.78,6493.79 7820.39,6493.16 7824.59,6490.35C7838.62,6480.95 7861.96,6476.74 7878,6476.74Z"/>
                </g>
                <g transform="matrix(0.937754,0,0,0.843394,-6985.4,-1291.76)">
                    <path d="M7924.88,6323.07C7924.88,6323.07 8012.64,6290.59 8096.26,6355.43" style="fill:none;stroke:black;stroke-width:31.35px;stroke-linejoin:round;"/>
                </g>
                <g transform="matrix(0.710839,-0.589827,2.57423,3.65346,-21602.8,-14539.9)">
                    <path d="M7908.35,6366.1C7908.35,6364.23 7901.17,6362.72 7892.33,6362.72L7874.94,6362.72C7866.1,6362.72 7858.92,6364.23 7858.92,6366.1C7858.92,6367.96 7866.1,6369.48 7874.94,6369.48L7892.33,6369.48C7901.17,6369.48 7908.35,6367.96 7908.35,6366.1Z"/>
                </g>
            </g>
        </g>
    </g>
</svg>
