
<svg width="100%" height="100%" viewBox="0 0 1003 1285" version="1.1" xmlns="http://www.w3.org/2000/svg" xmlns:xlink="http://www.w3.org/1999/xlink" xml:space="preserve" xmlns:serif="http://www.serif.com/" style="fill-rule:evenodd;clip-rule:evenodd;stroke-linecap:round;stroke-miterlimit:1.5;">
    <g transform="matrix(1,0,0,1,-3575.99,-6073.71)">
        <g id="Day-16" transform="matrix(1,0,0,0.921502,3575.99,2714.91)">
            <rect x="0.003" y="3644.93" width="1002.6" height="1393.6" style="fill:white;"/>
            <clipPath id="_clip1">
                <rect x="0.003" y="3644.93" width="1002.6" height="1393.6"/>
            </clipPath>
            <g clip-path="url(#_clip1)">
                <g transform="matrix(0.999997,0,0,1.35814,0.00674059,3625.97)">
                    <rect x="0" y="13.958" width="1002.6" height="1026.11" style="fill:rgb(153,8,0);stroke:rgb(252,250,255);stroke-width:0.35px;"/>
                </g>
                <g transform="matrix(9.37267,-3.37318,3.21033,10.5047,-57449.4,-51446.2)">
                    <path d="M3937.9,6583.51L3943.51,6589.39" style="fill:none;stroke:black;stroke-width:1.79px;stroke-linejoin:round;"/>
                </g>
                <g transform="matrix(9.37267,-3.37318,3.21033,10.5047,-57449.4,-51446.2)">
                    <path d="M3942.5,6583.51L3937.9,6589.39" style="fill:none;stroke:black;stroke-width:1.79px;stroke-linejoin:round;"/>
                </g>
                <g transform="matrix(9.37267,-3.37318,3.21033,10.5047,-57449.4,-51446.2)">
                    <path d="M3951.37,6536.66C3951.37,6536.66 3967.17,6541.92 3971.38,6557.14C3971.39,6557.17 3971.4,6557.2 3971.4,6557.23C3971.6,6558.1 3974.83,6572.65 3972.22,6587.74C3972.18,6587.96 3972.04,6588.14 3971.83,6588.23C3970.08,6589.01 3961.64,6592.6 3956.3,6592.37L3956.89,6598.67C3956.89,6598.67 3954.82,6600.67 3953.47,6600.89C3953.47,6600.89 3950.97,6599.9 3950.37,6597.95C3950.37,6597.95 3947.64,6601.6 3945.71,6602.1C3945.71,6602.1 3943.01,6601.77 3940.56,6598.67C3940.56,6598.67 3938.52,6601.89 3937.09,6602.61C3937.09,6602.61 3934.74,6602.68 3932.43,6602.68C3932.43,6602.68 3928.32,6600.65 3927.66,6599.5C3927.66,6599.5 3925.17,6603.44 3923.46,6603.5C3923.46,6603.5 3918.94,6603.92 3918.59,6602.17C3918.59,6602.17 3917.89,6600.67 3918.39,6596.5C3918.39,6596.5 3903.06,6597.07 3898.74,6596.36C3898.74,6596.36 3894.16,6596.36 3890.96,6581.27C3890.96,6581.27 3887.94,6562.33 3892.56,6554.03C3892.59,6553.97 3892.62,6553.91 3892.64,6553.85C3893.26,6552.07 3902.74,6527.23 3947.6,6535.51L3943.51,6539.83L3948.57,6545.45L3948.66,6540.2L3951.37,6536.66Z" style="fill:white;"/>
                    <path d="M3890.93,6553.25C3888.99,6556.78 3888.27,6562.07 3888.18,6567.17C3888.05,6574.57 3889.16,6581.53 3889.16,6581.53C3889.16,6581.56 3889.16,6581.59 3889.17,6581.62C3890.87,6589.61 3892.99,6593.57 3894.62,6595.57C3896.56,6597.93 3898.18,6598.12 3898.62,6598.13C3902.21,6598.65 3912.1,6598.45 3916.41,6598.33C3916.29,6600.94 3916.68,6602.26 3916.85,6602.72C3917.14,6603.72 3917.98,6604.49 3919.21,6604.9C3920.79,6605.42 3923.12,6605.29 3923.56,6605.26C3924.4,6605.22 3925.43,6604.74 3926.36,6603.9C3926.94,6603.39 3927.5,6602.75 3927.97,6602.16C3929.49,6603.2 3931.6,6604.25 3931.6,6604.25C3931.86,6604.38 3932.14,6604.44 3932.43,6604.44C3934.77,6604.44 3937.14,6604.38 3937.14,6604.38C3937.42,6604.37 3937.69,6604.3 3937.93,6604.18C3938.52,6603.88 3939.2,6603.31 3939.84,6602.61C3940.16,6602.25 3940.48,6601.87 3940.77,6601.49C3943.23,6603.64 3945.48,6603.85 3945.48,6603.85C3945.71,6603.88 3945.95,6603.86 3946.18,6603.81C3946.98,6603.6 3947.91,6603.05 3948.77,6602.31C3949.3,6601.86 3949.81,6601.35 3950.25,6600.87C3951.44,6601.96 3952.78,6602.52 3952.78,6602.52C3953.09,6602.65 3953.43,6602.68 3953.77,6602.63C3954.37,6602.53 3955.09,6602.23 3955.78,6601.8C3957.01,6601.04 3958.18,6599.92 3958.18,6599.92C3958.56,6599.55 3958.75,6599.03 3958.7,6598.51L3958.29,6594.07C3963.81,6593.55 3970.95,6590.56 3972.59,6589.84C3972.59,6589.84 3972.6,6589.84 3972.6,6589.84C3973.35,6589.5 3973.88,6588.82 3974.02,6588.04C3974.02,6588.03 3974.02,6588.03 3974.02,6588.03C3976.68,6572.61 3973.39,6557.74 3973.18,6556.85C3973.18,6556.85 3973.18,6556.84 3973.18,6556.84C3973.17,6556.79 3973.16,6556.73 3973.14,6556.68C3968.69,6540.57 3951.96,6534.99 3951.96,6534.99C3951.21,6534.74 3950.38,6534.99 3949.91,6535.61L3947.2,6539.15C3946.97,6539.44 3946.85,6539.8 3946.84,6540.17L3946.83,6540.83C3946.83,6540.83 3945.95,6539.86 3945.95,6539.86C3945.95,6539.86 3948.95,6536.7 3948.95,6536.7C3949.39,6536.23 3949.54,6535.56 3949.33,6534.96C3949.13,6534.35 3948.59,6533.9 3947.94,6533.78C3924.8,6529.51 3910.8,6533.89 3902.49,6539.46C3894.01,6545.14 3891.31,6552.15 3890.93,6553.25ZM3898.6,6596.34L3898.16,6598.03L3898.54,6596.33C3897.64,6596.13 3893.77,6594.52 3890.96,6581.27C3890.96,6581.27 3887.94,6562.33 3892.56,6554.03C3892.59,6553.97 3892.62,6553.91 3892.64,6553.85C3893.26,6552.07 3902.74,6527.23 3947.6,6535.51L3943.51,6539.83L3948.57,6545.45L3948.66,6540.2L3951.37,6536.66C3951.37,6536.66 3967.17,6541.92 3971.38,6557.14C3971.39,6557.17 3971.4,6557.2 3971.4,6557.23C3971.6,6558.1 3974.83,6572.65 3972.22,6587.74C3972.18,6587.96 3972.04,6588.14 3971.83,6588.23C3970.08,6589.01 3961.64,6592.6 3956.3,6592.37L3956.89,6598.67C3956.89,6598.67 3954.82,6600.67 3953.47,6600.89C3953.47,6600.89 3950.97,6599.9 3950.37,6597.95C3950.37,6597.95 3947.64,6601.6 3945.71,6602.1C3945.71,6602.1 3943.01,6601.77 3940.56,6598.67C3940.56,6598.67 3938.52,6601.89 3937.09,6602.61C3937.09,6602.61 3934.74,6602.68 3932.43,6602.68C3932.43,6602.68 3928.32,6600.65 3927.66,6599.5C3927.66,6599.5 3925.17,6603.44 3923.46,6603.5C3923.46,6603.5 3918.94,6603.92 3918.59,6602.17C3918.59,6602.17 3917.89,6600.67 3918.39,6596.5C3918.39,6596.5 3903.06,6597.07 3898.74,6596.36C3898.74,6596.36 3898.69,6596.36 3898.6,6596.34Z"/>
                </g>
                <g transform="matrix(9.37267,-3.37318,3.21033,10.5047,-57449.4,-51446.2)">
                    <path d="M3946.33,6565.91C3946.33,6565.91 3946.64,6554.69 3953.02,6554.34C3953.02,6554.34 3959.1,6553.75 3960.13,6563.71C3960.13,6563.71 3960.93,6578.43 3960.75,6580.29C3960.74,6580.37 3960.71,6580.44 3960.67,6580.5C3960.26,6581.09 3958.08,6583.93 3954.29,6583.45C3954.29,6583.45 3950.06,6584.74 3947.1,6572.78L3950.18,6570.1L3946.33,6565.91Z" style="fill:rgb(153,8,0);"/>
                    <path d="M3944.5,6565.87C3944.49,6566.32 3944.66,6566.75 3944.97,6567.09L3947.62,6569.96C3947.62,6569.96 3945.88,6571.48 3945.88,6571.48C3945.39,6571.91 3945.18,6572.57 3945.33,6573.2C3948.24,6584.95 3952.88,6585.41 3954.37,6585.23C3958.98,6585.65 3961.68,6582.22 3962.18,6581.49C3962.19,6581.48 3962.2,6581.47 3962.21,6581.45C3962.38,6581.19 3962.5,6580.89 3962.55,6580.57C3962.56,6580.53 3962.56,6580.49 3962.57,6580.46C3962.75,6578.56 3961.95,6563.62 3961.95,6563.62C3961.95,6563.59 3961.95,6563.56 3961.95,6563.53C3961.35,6557.76 3959.14,6555.11 3957.22,6553.83C3955.1,6552.42 3953.12,6552.55 3952.87,6552.58C3949.62,6552.78 3947.49,6555.05 3946.23,6557.87C3944.64,6561.47 3944.5,6565.87 3944.5,6565.87ZM3946.33,6565.91C3946.33,6565.91 3946.64,6554.69 3953.02,6554.34C3953.02,6554.34 3959.1,6553.75 3960.13,6563.71C3960.13,6563.71 3960.93,6578.43 3960.75,6580.29C3960.74,6580.37 3960.71,6580.44 3960.67,6580.5C3960.26,6581.09 3958.08,6583.93 3954.29,6583.45C3954.29,6583.45 3950.06,6584.74 3947.1,6572.78L3950.18,6570.1L3946.33,6565.91Z"/>
                </g>
                <g transform="matrix(9.37267,-3.37318,3.13799,10.268,-56974.1,-49891)">
                    <path d="M3911.28,6564.05L3914.21,6557.66L3914.21,6555.41C3914.21,6555.41 3922.96,6542.26 3931.53,6557.88C3931.58,6557.97 3931.61,6558.08 3931.61,6558.19C3931.61,6560.17 3931.61,6579.34 3931.61,6580.95C3931.61,6581.02 3931.6,6581.09 3931.57,6581.15C3931.16,6582.06 3927.8,6589.07 3921.55,6589.94C3921.51,6589.95 3921.46,6589.95 3921.42,6589.95C3920.81,6589.89 3915.97,6589.22 3912.77,6583.89C3912.77,6583.89 3910.33,6576.39 3910.88,6573.89L3915.51,6570.23L3911.28,6564.05Z" style="fill:rgb(153,8,0);"/>
                    <path d="M3909.62,6563.3C3909.36,6563.88 3909.41,6564.54 3909.77,6565.07L3913.06,6569.86C3913.06,6569.86 3909.74,6572.48 3909.74,6572.48C3909.41,6572.74 3909.18,6573.1 3909.09,6573.51C3908.9,6574.41 3908.97,6575.87 3909.25,6577.46C3909.8,6580.63 3911.03,6584.44 3911.03,6584.44C3911.07,6584.57 3911.13,6584.7 3911.2,6584.82C3914.9,6590.97 3920.53,6591.67 3921.22,6591.74C3921.24,6591.75 3921.25,6591.75 3921.27,6591.75C3921.45,6591.76 3921.62,6591.76 3921.8,6591.73C3921.8,6591.73 3921.8,6591.73 3921.8,6591.73C3924.72,6591.33 3927.11,6589.81 3928.94,6588.02C3931.53,6585.5 3932.97,6582.49 3933.23,6581.89C3933.24,6581.88 3933.24,6581.88 3933.24,6581.87C3933.37,6581.58 3933.43,6581.27 3933.43,6580.95C3933.43,6579.34 3933.43,6560.17 3933.43,6558.19C3933.43,6557.78 3933.33,6557.38 3933.13,6557.02C3933.13,6557.02 3933.13,6557.01 3933.13,6557.01C3929.16,6549.77 3924.94,6548.15 3921.56,6548.47C3916.43,6548.95 3912.69,6554.42 3912.69,6554.42C3912.49,6554.72 3912.39,6555.06 3912.39,6555.41L3912.39,6557.27C3912.39,6557.27 3909.62,6563.3 3909.62,6563.3ZM3911.28,6564.05L3914.21,6557.66L3914.21,6555.41C3914.21,6555.41 3922.96,6542.26 3931.53,6557.88C3931.58,6557.97 3931.61,6558.08 3931.61,6558.19C3931.61,6560.17 3931.61,6579.34 3931.61,6580.95C3931.61,6581.02 3931.6,6581.09 3931.57,6581.15C3931.16,6582.06 3927.8,6589.07 3921.55,6589.94C3921.51,6589.95 3921.46,6589.95 3921.42,6589.95C3920.81,6589.89 3915.97,6589.22 3912.77,6583.89C3912.77,6583.89 3910.33,6576.39 3910.88,6573.89L3915.51,6570.23L3911.28,6564.05Z"/>
                </g>
            </g>
        </g>
    </g>
</svg>
