
<svg width="100%" height="100%" viewBox="0 0 1003 1285" version="1.1" xmlns="http://www.w3.org/2000/svg" xmlns:xlink="http://www.w3.org/1999/xlink" xml:space="preserve" xmlns:serif="http://www.serif.com/" style="fill-rule:evenodd;clip-rule:evenodd;stroke-linecap:round;stroke-linejoin:round;stroke-miterlimit:1.5;">
    <g transform="matrix(1,0,0,1,-2232.01,-2249.14)">
        <g id="Day-8" transform="matrix(0.534633,0,0,0.865802,2486.29,2562.4)">
            <rect x="-475.616" y="-361.812" width="1875.31" height="1483.25" style="fill:url(#_Linear1);"/>
            <g transform="matrix(3.29185,0,0,1.76825,-8549.3,-4597.8)">
                <path d="M2723.72,2572.32C2842.07,2572.32 2948.41,2661.68 2948.41,2771.07C2948.41,2788.96 2951.23,2809.27 2950.01,2829.79C2949.73,2834.58 2949.22,2839.37 2948.41,2844.15C2941.63,2884.22 2922.19,2923.88 2897.26,2951.76C2859.9,2993.54 2794.85,3005.03 2738.18,3005.03C2684.51,3005.03 2619.28,2992.93 2581.85,2953.17C2536.74,2905.26 2524.62,2823.93 2524.62,2764.14C2524.62,2654.74 2605.38,2572.32 2723.72,2572.32Z" style="fill:rgb(251,243,243);stroke:black;stroke-width:7.88px;"/>
            </g>
            <g transform="matrix(2.96619,0,0,1.82297,-7596.49,-4587.8)">
                <path d="M2508.67,2807.34C2508.67,2807.34 2678.43,2913.66 2820.14,2845.18" style="fill:none;stroke:black;stroke-width:6px;"/>
            </g>
            <g transform="matrix(3.44552,0,0,1.93199,-8865.86,-4890.69)">
                <path d="M2589.3,2627.34C2609.19,2627.34 2627.85,2671.04 2627.85,2715.84C2627.85,2760.64 2616.71,2791.33 2596.82,2791.33C2576.93,2791.33 2553.25,2753.31 2553.25,2708.51C2553.25,2663.71 2569.41,2627.34 2589.3,2627.34Z" style="stroke:black;stroke-width:3.13px;"/>
            </g>
            <g transform="matrix(-4.29115,-0.416477,0.490353,-1.90834,10396.4,6593.52)">
                <path d="M2585.79,2613.1C2605.34,2608.02 2627.85,2671.04 2627.85,2715.84C2627.85,2760.64 2616.71,2791.33 2596.82,2791.33C2576.93,2791.33 2553.25,2753.31 2553.25,2708.51C2553.25,2687.34 2552.85,2664.36 2557.28,2647.39C2562.22,2628.45 2572.65,2616.52 2585.79,2613.1Z" style="stroke:black;stroke-width:2.72px;"/>
            </g>
            <g transform="matrix(1.58582,0,0,1.57833,-221.688,83.3857)">
                <g transform="matrix(1.87044,0,0,1.155,-4650.46,-2959.57)">
                    <path d="M2767.2,2625.89C2767.48,2626.02 2767.66,2626.29 2767.68,2626.6C2767.7,2626.9 2767.55,2627.19 2767.3,2627.36C2760.65,2632.18 2724.64,2663.1 2739.34,2765.2C2739.42,2765.73 2739.12,2766.23 2738.62,2766.41C2737.58,2766.8 2735.83,2766.82 2734.99,2763.17C2734.87,2762.63 2734.73,2762.1 2734.59,2761.57C2734.16,2759.79 2732.58,2754.67 2730.8,2755.49C2730.8,2755.49 2725.12,2755.59 2729.84,2767.76C2729.84,2767.76 2736.7,2790.34 2746.02,2793.82C2746.09,2793.85 2746.14,2793.9 2746.16,2793.96C2746.3,2794.47 2746.74,2796.55 2744.04,2795.95C2744.04,2795.95 2735.65,2791.74 2728.67,2775.22C2728.67,2775.22 2716.7,2744.97 2720.61,2714.14C2720.74,2713.18 2720.84,2712.22 2720.93,2711.25C2721.94,2701.25 2728.8,2637.55 2743.46,2634.23C2743.6,2634.2 2743.74,2634.25 2743.84,2634.34C2744.19,2634.95 2744.89,2637.28 2740.27,2643.75C2740.27,2643.75 2732.42,2654.92 2733.31,2657.86C2733.31,2657.86 2736.25,2661.43 2740,2653.94C2740,2653.94 2750.14,2636.02 2756.72,2631.44C2757.56,2630.87 2758.34,2630.22 2759.05,2629.49C2760.82,2627.72 2764.37,2624.65 2767.2,2625.89Z" style="fill:white;stroke:black;stroke-width:0.57px;"/>
                </g>
                <g transform="matrix(1.87044,0,0,1.155,-4650.46,-2959.57)">
                    <path d="M2732.48,2665.14C2733.05,2664.62 2733.94,2664.66 2734.46,2665.24C2735.67,2666.55 2736.91,2670.34 2733.31,2681.09C2733.31,2681.09 2731.97,2684.47 2733.15,2688.21C2733.26,2688.56 2733.23,2688.94 2733.06,2689.27C2732.63,2690.09 2731.6,2691.36 2729.7,2690.28C2729.32,2690.08 2729.06,2689.69 2729.02,2689.25C2728.74,2685.98 2727.77,2669.59 2732.48,2665.14Z" style="stroke:black;stroke-width:0.57px;"/>
                </g>
                <g transform="matrix(1.87044,0,0,1.155,-4650.46,-2959.57)">
                    <path d="M2730.48,2695.64C2730.56,2695.64 2730.64,2695.66 2730.7,2695.71C2731.23,2696.12 2733.66,2698.23 2731.62,2700.92C2731.62,2700.92 2728.74,2703.92 2727.18,2701.76C2727.18,2701.76 2725.09,2695.65 2730.48,2695.64Z" style="stroke:black;stroke-width:0.57px;"/>
                </g>
                <g transform="matrix(1.70766,0,0,0.924316,-4206.58,-2297.4)">
                    <path d="M2730.48,2695.64C2730.56,2695.64 2730.64,2695.66 2730.71,2695.71C2731.24,2696.12 2733.66,2698.24 2731.62,2700.92C2731.62,2700.92 2728.74,2703.92 2727.18,2701.76C2727.18,2701.76 2725.09,2695.65 2730.48,2695.64Z" style="stroke:black;stroke-width:0.66px;"/>
                </g>
                <g transform="matrix(1.39665,0,0,0.862435,-3357.7,-2155.77)">
                    <path d="M2725.98,2743.42C2725.98,2743.42 2725.98,2743.42 2725.98,2743.42C2724.18,2745.34 2724.37,2747.65 2725.02,2749.49C2725.67,2751.33 2726.76,2752.69 2726.76,2752.69C2726.77,2752.69 2726.77,2752.69 2726.77,2752.69C2727.07,2752.98 2727.45,2753.08 2727.88,2753.05C2728.3,2753.03 2728.76,2752.88 2729.21,2752.67C2730.57,2752.05 2731.87,2750.89 2731.87,2750.89C2731.87,2750.89 2731.87,2750.89 2731.87,2750.89C2732.79,2749.67 2732.74,2748.28 2732.25,2746.97C2731.76,2745.66 2730.84,2744.42 2730,2743.48C2730,2743.48 2730,2743.48 2730,2743.48C2729.49,2742.91 2728.77,2742.58 2728.01,2742.57C2727.24,2742.55 2726.51,2742.86 2725.98,2743.42Z" style="stroke:black;stroke-width:0.76px;"/>
                </g>
            </g>
            <g transform="matrix(1.04564,-0.0111626,-0.0382854,-1.35462,-487.051,581.567)">
                <g transform="matrix(1.87044,0,0,1.155,-4650.46,-2959.57)">
                    <path d="M2767.48,2626.03C2767.73,2626.16 2767.88,2626.38 2767.88,2626.61C2767.89,2626.84 2767.76,2627.05 2767.52,2627.19C2761.56,2631.42 2724.46,2661.83 2739.34,2765.19C2739.39,2765.54 2739.25,2765.89 2738.95,2766.16C2738.64,2766.42 2738.21,2766.58 2737.76,2766.58C2736.78,2766.59 2735.62,2765.92 2734.98,2763.13C2734.87,2762.63 2734.74,2762.13 2734.61,2761.63C2734.2,2759.92 2732.6,2754.66 2730.8,2755.49C2730.8,2755.49 2725.12,2755.59 2729.84,2767.76C2729.84,2767.76 2736.68,2790.28 2745.99,2793.81C2746.08,2793.84 2746.14,2793.91 2746.17,2793.98C2746.31,2794.52 2746.71,2796.54 2744.04,2795.95C2744.04,2795.95 2735.65,2791.74 2728.67,2775.22C2728.67,2775.22 2716.66,2744.88 2720.63,2714.01C2720.75,2713.1 2720.85,2712.2 2720.93,2711.3C2721.91,2701.49 2728.7,2638.22 2743.23,2634.29C2743.48,2634.24 2743.75,2634.31 2743.91,2634.47C2744.26,2635.24 2744.61,2637.68 2740.27,2643.75C2740.27,2643.75 2732.42,2654.92 2733.31,2657.86C2733.31,2657.86 2736.25,2661.43 2740,2653.94C2740,2653.94 2750.04,2636.21 2756.62,2631.52C2757.51,2630.89 2758.33,2630.21 2759.05,2629.46C2760.91,2627.64 2764.62,2624.45 2767.48,2626.03Z" style="fill:white;stroke:black;stroke-width:0.74px;"/>
                </g>
                <g transform="matrix(1.87044,0,0,1.155,-4650.46,-2959.57)">
                    <path d="M2731.55,2666.28C2731.99,2665.78 2732.76,2665.51 2733.54,2665.59C2734.31,2665.67 2734.97,2666.08 2735.23,2666.65C2735.99,2668.73 2736.06,2672.88 2733.31,2681.09C2733.31,2681.09 2731.96,2684.5 2733.16,2688.25C2733.27,2688.58 2733.24,2688.92 2733.08,2689.23C2732.68,2690.01 2731.73,2691.25 2729.98,2690.43C2729.47,2690.23 2729.13,2689.83 2729.09,2689.39C2728.79,2686.7 2727.84,2671.97 2731.55,2666.28Z" style="stroke:black;stroke-width:0.74px;"/>
                </g>
                <g transform="matrix(1.87044,0,0,1.155,-4650.46,-2959.57)">
                    <path d="M2730.37,2695.64C2730.51,2695.63 2730.66,2695.68 2730.77,2695.76C2731.39,2696.27 2733.59,2698.33 2731.62,2700.92C2731.62,2700.92 2728.74,2703.92 2727.18,2701.76C2727.18,2701.76 2725.12,2695.74 2730.37,2695.64Z" style="stroke:black;stroke-width:0.74px;"/>
                </g>
                <g transform="matrix(1.70766,0,0,0.924316,-4206.58,-2297.4)">
                    <path d="M2730.37,2695.64C2730.52,2695.63 2730.67,2695.68 2730.78,2695.77C2731.42,2696.3 2733.58,2698.34 2731.62,2700.92C2731.62,2700.92 2728.74,2703.92 2727.18,2701.76C2727.18,2701.76 2725.12,2695.74 2730.37,2695.64Z" style="stroke:black;stroke-width:0.88px;"/>
                </g>
                <g transform="matrix(1.39665,0,0,0.862435,-3357.7,-2155.77)">
                    <path d="M2724.73,2748.55C2724.73,2748.55 2724.73,2748.55 2724.73,2748.55C2724.37,2746.95 2725.73,2745.42 2727.79,2745.1C2729.86,2744.78 2731.88,2745.78 2732.35,2747.36C2732.75,2748.55 2732.71,2749.79 2731.88,2750.89C2731.88,2750.89 2731.88,2750.89 2731.88,2750.89C2731.88,2750.89 2730.58,2752.05 2729.22,2752.67C2728.3,2753.1 2727.35,2753.27 2726.76,2752.69C2726.75,2752.69 2726.75,2752.69 2726.75,2752.69C2726.75,2752.69 2725.26,2750.85 2724.73,2748.55Z" style="stroke:black;stroke-width:1px;"/>
                </g>
            </g>
            <g transform="matrix(2.96619,0,0,1.82297,-7596.49,-4587.8)">
                <path d="M2668.13,2783.22C2668.4,2783.04 2668.73,2782.98 2669.05,2783.05C2669.36,2783.13 2669.64,2783.33 2669.8,2783.61C2672.04,2787.37 2679.57,2800.07 2682.52,2805.2C2682.6,2805.33 2682.66,2805.47 2682.71,2805.61C2683.3,2807.39 2687.14,2819.82 2679.2,2822.16C2679.2,2822.16 2671.23,2825.94 2664.41,2812.77C2664.41,2812.77 2661.23,2817.52 2656.92,2817.3C2656.92,2817.3 2650.65,2818.39 2650.1,2808.1C2650.07,2807.64 2650.15,2807.18 2650.34,2806.76C2651.73,2803.73 2658.5,2789.86 2668.13,2783.22Z" style="fill:rgb(0,2,3);stroke:black;stroke-width:0.57px;"/>
            </g>
            <g transform="matrix(2.96619,0,0,1.82297,-7596.49,-4587.8)">
                <path d="M2621.14,2778.34C2621.14,2778.34 2623.86,2788.21 2615.58,2792.21C2615.58,2792.21 2612.19,2792.15 2615.43,2788.35C2615.43,2788.35 2618.54,2785.78 2618.81,2783.34C2618.81,2783.34 2617.95,2776.15 2621.14,2778.34Z" style="fill:rgb(0,4,8);stroke:black;stroke-width:0.57px;"/>
            </g>
            <g transform="matrix(2.96619,0,0,1.82297,-7596.49,-4587.8)">
                <path d="M2807.55,2792.1C2807.55,2792.1 2813.47,2795.87 2799.46,2807.96C2799.45,2807.97 2799.44,2807.98 2799.43,2807.99C2799.14,2808.26 2796.3,2810.89 2794.19,2811.1C2794.19,2811.1 2792.23,2810.74 2795.54,2806.81C2796.36,2805.83 2797.1,2804.78 2797.74,2803.67C2800.08,2799.7 2805.53,2790.93 2807.55,2792.1Z" style="fill:rgb(0,3,6);stroke:black;stroke-width:0.57px;"/>
            </g>
            <g transform="matrix(2.96619,0,0,1.82297,-7595.33,-4589.78)">
                <path d="M2566.12,2826.07C2566.12,2823.68 2564.18,2821.73 2561.8,2821.73C2559.41,2821.73 2557.48,2823.68 2557.48,2826.07L2557.48,2851.62C2557.48,2854.02 2559.41,2855.96 2561.8,2855.96C2564.18,2855.96 2566.12,2854.02 2566.12,2851.62L2566.12,2826.07Z" style="fill:rgb(0,3,6);stroke:black;stroke-width:0.57px;"/>
            </g>
            <g transform="matrix(2.96619,0,0,1.01768,-7501.34,-2275.43)">
                <path d="M2566.12,2829.51C2566.12,2825.22 2564.18,2821.73 2561.8,2821.73C2559.41,2821.73 2557.48,2825.22 2557.48,2829.51L2557.48,2848.19C2557.48,2852.48 2559.41,2855.96 2561.8,2855.96C2564.18,2855.96 2566.12,2852.48 2566.12,2848.19L2566.12,2829.51Z" style="fill:rgb(0,3,6);stroke:black;stroke-width:0.7px;"/>
            </g>
            <g transform="matrix(2.96619,0,0,1.01768,-7363.13,-2276.38)">
                <path d="M2566.12,2829.51C2566.12,2825.22 2564.18,2821.73 2561.8,2821.73C2559.41,2821.73 2557.48,2825.22 2557.48,2829.51L2557.48,2848.19C2557.48,2852.48 2559.41,2855.96 2561.8,2855.96C2564.18,2855.96 2566.12,2852.48 2566.12,2848.19L2566.12,2829.51Z" style="fill:rgb(0,3,6);stroke:black;stroke-width:0.7px;"/>
            </g>
            <g transform="matrix(2.86081,-0.481578,0.368304,0.826406,-7863.23,-482.504)">
                <path d="M2566.12,2830.96C2566.12,2825.87 2564.18,2821.73 2561.8,2821.73C2559.41,2821.73 2557.48,2825.87 2557.48,2830.96L2557.48,2846.73C2557.48,2851.83 2559.41,2855.96 2561.8,2855.96C2564.18,2855.96 2566.12,2851.83 2566.12,2846.73L2566.12,2830.96Z" style="fill:rgb(0,3,6);stroke:black;stroke-width:0.73px;"/>
            </g>
            <g transform="matrix(2.86081,-0.481578,0.368304,0.826406,-7661.89,-487.33)">
                <path d="M2566.12,2830.96C2566.12,2825.87 2564.18,2821.73 2561.8,2821.73C2559.41,2821.73 2557.48,2825.87 2557.48,2830.96L2557.48,2846.73C2557.48,2851.83 2559.41,2855.96 2561.8,2855.96C2564.18,2855.96 2566.12,2851.83 2566.12,2846.73L2566.12,2830.96Z" style="fill:rgb(0,3,6);stroke:black;stroke-width:0.73px;"/>
            </g>
            <g transform="matrix(2.96619,0,0,2.00833,-7596.05,-5120.21)">
                <path d="M2684,2856.77C2684,2854.6 2682.07,2852.83 2679.68,2852.83C2677.3,2852.83 2675.36,2854.6 2675.36,2856.77L2675.36,2876.97C2675.36,2879.15 2677.3,2880.91 2679.68,2880.91C2682.07,2880.91 2684,2879.15 2684,2876.97L2684,2856.77Z" style="fill:rgb(0,3,6);stroke:black;stroke-width:0.54px;"/>
            </g>
            <g transform="matrix(2.91973,-0.321359,0.576054,1.97688,-8847.2,-4172.67)">
                <path d="M2684,2856.77C2684,2854.6 2682.07,2852.83 2679.68,2852.83C2677.3,2852.83 2675.36,2854.6 2675.36,2856.77L2675.36,2876.97C2675.36,2879.15 2677.3,2880.91 2679.68,2880.91C2682.07,2880.91 2684,2879.15 2684,2876.97L2684,2856.77Z" style="fill:rgb(0,3,6);stroke:black;stroke-width:0.54px;"/>
            </g>
            <g transform="matrix(2.96619,0,0,1.82297,-7596.49,-4587.8)">
                <ellipse cx="2901.61" cy="2600.63" rx="1.869" ry="2.723" style="fill:rgb(0,3,6);stroke:black;stroke-width:0.57px;"/>
            </g>
            <g transform="matrix(2.96619,0,0,1.82297,-7596.49,-4587.8)">
                <path d="M2853.4,2542.92C2854.82,2542.92 2855.97,2544.55 2855.97,2546.55C2855.97,2548.55 2854.82,2550.18 2853.4,2550.18C2851.99,2550.18 2853.4,2548.41 2853.4,2546.41C2853.4,2544.41 2851.99,2542.92 2853.4,2542.92Z" style="fill:rgb(0,3,6);stroke:black;stroke-width:0.57px;"/>
            </g>
            <g transform="matrix(2.96619,0,0,1.82297,-7596.49,-4587.8)">
                <path d="M2866.82,2558.97C2866.92,2558.66 2867.17,2558.43 2867.48,2558.34C2867.79,2558.26 2868.13,2558.33 2868.37,2558.54C2872.61,2562.14 2890.78,2578.06 2889.77,2584.94C2889.71,2585.31 2889.49,2585.63 2889.16,2585.81C2888.84,2585.99 2888.45,2586.01 2888.11,2585.87C2886.56,2585.27 2883.89,2583.71 2882.75,2580.22C2882.57,2579.68 2882.3,2579.18 2881.94,2578.73C2880.18,2576.51 2874.94,2570.03 2872.05,2568.16C2872.05,2568.16 2865.33,2563.06 2866.82,2558.97Z" style="fill:rgb(2,6,9);stroke:black;stroke-width:0.57px;"/>
            </g>
            <g transform="matrix(2.96619,0,0,1.82297,-7596.49,-4587.8)">
                <path d="M2892.1,2841.82C2892.38,2841.81 2892.64,2841.93 2892.82,2842.14C2892.99,2842.35 2893.07,2842.62 2893.02,2842.89C2892.62,2844.95 2890.67,2849.92 2882.08,2854.08C2882.01,2854.12 2881.93,2854.11 2881.87,2854.07C2881.51,2853.84 2880.7,2852.79 2884.65,2848.94C2885.68,2847.93 2886.59,2846.8 2887.35,2845.57C2888.33,2844 2890.01,2841.93 2892.1,2841.82Z" style="stroke:black;stroke-width:0.57px;"/>
            </g>
        </g>
    </g>
    <defs>
        <linearGradient id="_Linear1" x1="0" y1="0" x2="1" y2="0" gradientUnits="userSpaceOnUse" gradientTransform="matrix(1823.76,1414.59,-2290.83,1126.17,-424.067,-320.798)"><stop offset="0" style="stop-color:rgb(255,110,0);stop-opacity:1"/><stop offset="1" style="stop-color:rgb(237,176,13);stop-opacity:1"/></linearGradient>
    </defs>
</svg>
