
<svg width="100%" height="100%" viewBox="0 0 1003 1285" version="1.1" xmlns="http://www.w3.org/2000/svg" xmlns:xlink="http://www.w3.org/1999/xlink" xml:space="preserve" xmlns:serif="http://www.serif.com/" style="fill-rule:evenodd;clip-rule:evenodd;stroke-linecap:round;stroke-miterlimit:1.5;">
    <g transform="matrix(1,0,0,1,-2252.57,-4342.95)">
        <g id="Day-13" transform="matrix(1,0,0,0.921502,2252.57,984.144)">
            <rect x="0.003" y="3644.93" width="1002.6" height="1393.6" style="fill:white;"/>
            <clipPath id="_clip1">
                <rect x="0.003" y="3644.93" width="1002.6" height="1393.6"/>
            </clipPath>
            <g clip-path="url(#_clip1)">
                <g transform="matrix(0.999997,0,0,1.35814,0.00674059,3625.97)">
                    <rect x="0" y="13.958" width="1002.6" height="1026.11" style="fill:rgb(96,37,157);stroke:rgb(243,226,226);stroke-width:0.88px;"/>
                </g>
                <g transform="matrix(1.26626,0,0,1.37413,-3003.07,-2529.7)">
                    <path d="M2496.79,4924.9C2496.79,4924.9 2512.97,4762.51 2655.68,4704.98C2655.68,4704.98 2805.95,4644.2 2927.8,4714.99C2927.8,4714.99 3056.94,4777.53 3072.76,4949.52C3072.76,4949.52 3083.87,5242.06 2855.62,5264.53L2855.62,5218.99C2855.62,5218.99 2897.7,5224.51 2915.93,5187.33C2918.46,5182.16 2919.87,5176.51 2920.08,5170.76C2920.39,5161.89 2920.93,5146.55 2921.18,5139.31C2921.29,5136.31 2919.91,5133.45 2917.51,5131.66C2913.78,5128.91 2907.8,5126.55 2901.7,5132.63C2899.75,5134.53 2898.76,5137.22 2899.01,5139.94C2899.95,5151.73 2901.08,5189.3 2878.01,5195.29C2876.28,5195.73 2874.51,5195.97 2872.73,5195.98C2865.49,5196.05 2831.17,5196.34 2831.17,5196.34C2831.17,5196.34 2830.48,5265.32 2830.21,5292.03C2830.09,5303.74 2822.55,5314.08 2811.44,5317.78C2807.51,5319.05 2802.8,5319.97 2797.18,5320.23C2797.18,5320.23 2785.99,5319.85 2780.55,5319.66C2777.57,5319.55 2774.65,5318.8 2771.99,5317.44C2768.94,5315.88 2765.16,5313.28 2762,5309.05C2759.28,5305.45 2757.82,5301.07 2757.82,5296.56C2757.8,5290.04 2757.8,5278.11 2757.8,5270.95C2757.8,5266.45 2756.01,5262.12 2752.83,5258.93C2746.98,5253.07 2736.71,5246.67 2725.91,5258.29C2723.19,5261.14 2721.65,5264.92 2721.62,5268.86C2721.53,5274.79 2721.45,5284.61 2721.41,5290.48C2721.37,5294.67 2720.31,5298.79 2718.32,5302.48C2714.28,5309.88 2705.76,5320.34 2689.95,5319.79L2682.25,5319.79C2675.97,5319.79 2669.89,5317.66 2664.98,5313.76C2663.38,5312.46 2661.73,5310.92 2660.13,5309.08C2656.28,5304.69 2654.16,5299.05 2654.14,5293.21C2654.11,5285.98 2654.07,5274.68 2654.05,5268.3C2654.04,5264.48 2652.66,5260.78 2650.15,5257.89C2645.02,5252.02 2635.34,5245.14 2623.45,5257.62C2620.46,5260.68 2618.83,5264.83 2618.94,5269.11C2619.04,5274.51 2619.24,5282.72 2619.39,5288.91C2619.56,5295.72 2617.17,5302.34 2612.7,5307.47C2606.89,5314.14 2597.55,5321.47 2585.15,5320.28L2576.11,5320.28C2570.05,5320.28 2564.14,5318.42 2559.17,5314.95C2558.61,5314.47 2557.99,5314.03 2557.38,5313.55C2550.28,5308.1 2546.08,5299.7 2545.97,5290.75C2545.66,5269.4 2545.09,5219.78 2545.09,5219.78C2545.09,5219.78 2515.44,5224.17 2498.94,5188.02C2496.04,5181.77 2494.54,5174.95 2494.56,5168.06C2494.59,5148.75 2494.73,5101.64 2494.73,5101.64L2496.79,4924.9Z" style="fill:rgb(255,253,245);"/>
                </g>
                <g transform="matrix(1.26626,0,0,1.37413,-2999.8,-2534.96)">
                    <path d="M2685.89,5080.34L2685.92,5080.27C2685.92,5080.27 2711.81,5109.69 2724.46,5124.07C2731.02,5131.52 2732.58,5142.14 2728.45,5151.16C2725.35,5157.78 2719.26,5163.49 2707.37,5163.15C2707.37,5163.15 2700.12,5164.57 2685.89,5150.77C2671.66,5164.57 2664.41,5163.15 2664.41,5163.15C2652.52,5163.49 2646.43,5157.78 2643.33,5151.16C2639.2,5142.14 2640.76,5131.52 2647.32,5124.07C2659.97,5109.69 2685.86,5080.27 2685.86,5080.27L2685.89,5080.34Z" style="fill:rgb(96,37,157);"/>
                </g>
                <g transform="matrix(1.26627,0,0,1.26627,-150.723,-1177.36)">
                    <g transform="matrix(0.999997,0,0,1.08519,-2252.56,-1067.98)">
                        <path d="M2472.97,4947.02C2492.75,4919.51 2524.78,4901.62 2560.91,4901.62C2620.9,4901.62 2669.61,4950.93 2669.61,5011.68C2669.61,5072.42 2620.9,5121.73 2560.91,5121.73C2500.93,5121.73 2452.22,5072.42 2452.22,5011.68C2452.22,5009.81 2452.27,5007.96 2452.36,5006.12L2452.24,5006.12C2442.82,5006.12 2435.16,4998.47 2435.16,4989.04C2435.16,4985.6 2436.18,4982.4 2437.93,4979.72C2430.21,4978.08 2424.4,4971.22 2424.4,4963.01C2424.4,4953.58 2432.06,4945.93 2441.48,4945.93L2466.96,4945.93C2469.08,4945.93 2471.1,4946.31 2472.97,4947.02Z" style="fill:rgb(252,190,15);"/>
                    </g>
                    <g transform="matrix(0.876663,0,0,1.06587,-1946.79,-984.968)">
                        <ellipse cx="2572.4" cy="5026.28" rx="92.318" ry="83.432" style="fill:rgb(96,37,157);"/>
                    </g>
                    <g transform="matrix(1.18308,1.30933,-0.91286,0.971354,1838.98,-3850.6)">
                        <path d="M2558.57,4970.06C2558.57,4964.99 2555.46,4960.88 2551.63,4960.88C2547.79,4960.88 2544.68,4964.99 2544.68,4970.06L2544.68,5038.25C2544.68,5043.32 2547.79,5047.43 2551.63,5047.43C2555.46,5047.43 2558.57,5043.32 2558.57,5038.25L2558.57,4970.06Z" style="fill:rgb(168,88,182);"/>
                    </g>
                    <g transform="matrix(1.18308,1.30933,-0.584634,0.622097,203.308,-2042.41)">
                        <path d="M2558.57,4975.22C2558.57,4967.3 2555.46,4960.88 2551.63,4960.88C2547.79,4960.88 2544.68,4967.3 2544.68,4975.22L2544.68,5033.1C2544.68,5041.01 2547.79,5047.43 2551.63,5047.43C2555.46,5047.43 2558.57,5041.01 2558.57,5033.1L2558.57,4975.22Z" style="fill:rgb(105,143,199);"/>
                    </g>
                    <g transform="matrix(1.18308,1.30933,-0.206414,0.219641,-1650.55,-71.9852)">
                        <path d="M2558.57,5001.48C2558.57,4979.07 2555.46,4960.88 2551.63,4960.88C2547.79,4960.88 2544.68,4979.07 2544.68,5001.48L2544.68,5006.83C2544.68,5029.24 2547.79,5047.43 2551.63,5047.43C2555.46,5047.43 2558.57,5029.24 2558.57,5006.83L2558.57,5001.48Z" style="fill:rgb(105,143,199);"/>
                    </g>
                </g>
                <g transform="matrix(1.26627,0,0,1.26627,174.946,-1177.36)">
                    <g transform="matrix(0.999997,0,0,1.08519,-2509.75,-1067.98)">
                        <path d="M2926.6,5004.98C2926.73,5007.2 2926.8,5009.43 2926.8,5011.68C2926.8,5072.42 2878.09,5121.73 2818.11,5121.73C2758.12,5121.73 2709.41,5072.42 2709.41,5011.68C2709.41,4950.93 2758.12,4901.62 2818.11,4901.62C2855.28,4901.62 2888.12,4920.56 2907.72,4949.41C2908.56,4949.29 2909.41,4949.22 2910.28,4949.22L3093.5,4949.22C3102.93,4949.22 3110.58,4956.88 3110.58,4966.31C3110.58,4975.73 3102.93,4983.39 3093.5,4983.39L2946.8,4983.39C2947.2,4984.82 2947.41,4986.34 2947.41,4987.9C2947.41,4997.33 2939.75,5004.98 2930.33,5004.98L2926.6,5004.98Z" style="fill:rgb(252,190,15);"/>
                    </g>
                    <g transform="matrix(0.876663,0,0,1.06587,-1946.79,-984.968)">
                        <ellipse cx="2572.4" cy="5026.28" rx="92.318" ry="83.432" style="fill:rgb(96,37,157);"/>
                    </g>
                    <g transform="matrix(1.18308,1.30933,-0.711791,0.757402,882.293,-2752.76)">
                        <path d="M2558.57,4972.65C2558.57,4966.16 2555.46,4960.88 2551.63,4960.88C2547.79,4960.88 2544.68,4966.16 2544.68,4972.65L2544.68,5035.66C2544.68,5042.15 2547.79,5047.43 2551.63,5047.43C2555.46,5047.43 2558.57,5042.15 2558.57,5035.66L2558.57,4972.65Z" style="fill:rgb(168,88,182);"/>
                    </g>
                    <g transform="matrix(1.18308,1.30933,-0.863765,0.919113,1593.36,-3581.64)">
                        <path d="M2558.57,4970.58C2558.57,4965.23 2555.46,4960.88 2551.63,4960.88C2547.79,4960.88 2544.68,4965.23 2544.68,4970.58L2544.68,5037.73C2544.68,5043.08 2547.79,5047.43 2551.63,5047.43C2555.46,5047.43 2558.57,5043.08 2558.57,5037.73L2558.57,4970.58Z" style="fill:rgb(105,143,199);"/>
                    </g>
                </g>
                <g transform="matrix(1.26626,0,0,1.37413,-3003.07,-2529.7)">
                    <path d="M2651.62,4962.79C2651.62,4962.79 2690.95,4912.21 2733.31,4965.89" style="fill:none;stroke:rgb(252,190,15);stroke-width:25.27px;stroke-linejoin:round;"/>
                </g>
            </g>
        </g>
    </g>
</svg>
