
<svg width="100%" height="100%" viewBox="0 0 1003 1285" version="1.1" xmlns="http://www.w3.org/2000/svg" xmlns:xlink="http://www.w3.org/1999/xlink" xml:space="preserve" xmlns:serif="http://www.serif.com/" style="fill-rule:evenodd;clip-rule:evenodd;stroke-linecap:round;stroke-miterlimit:1.5;">
    <g transform="matrix(1,0,0,1,-5130.15,-4361.78)">
        <g id="Day-15" transform="matrix(1,0,0,0.921502,5130.15,1002.98)">
            <rect x="0.003" y="3644.93" width="1002.6" height="1393.6" style="fill:white;"/>
            <clipPath id="_clip1">
                <rect x="0.003" y="3644.93" width="1002.6" height="1393.6"/>
            </clipPath>
            <g clip-path="url(#_clip1)">
                <g transform="matrix(0.999997,0,0,1.35814,0.00674059,3625.97)">
                    <rect x="0" y="13.958" width="1002.6" height="1026.11" style="fill:white;stroke:rgb(252,250,255);stroke-width:0.35px;"/>
                </g>
                <g transform="matrix(2.06948,0,0,2.10606,-171.949,-4961.46)">
                    <g transform="matrix(0.999997,0,0,1.08519,-5058.34,-1088.41)">
                        <path d="M5176.97,5011.79C5176.97,5011.79 5227.18,4883.69 5338.24,4863.47C5338.24,4863.47 5386.94,4849.56 5435.36,4862.34C5435.36,4862.34 5501.57,4878.68 5559.66,4978.41C5559.66,4978.41 5572.94,4998.56 5579.57,5022.82C5585.61,5044.97 5581.26,5068.61 5567.72,5087.28C5567.72,5087.28 5567.72,5087.28 5567.72,5087.28C5562.34,5094.71 5554.84,5100.4 5546.16,5103.64C5534.49,5108.09 5518.3,5114.16 5510.48,5116.54C5510.48,5116.54 5508.91,5249.6 5502.56,5267.4L5320.39,5268.42C5320.39,5268.42 5371.2,5250.78 5385.4,5204.41C5385.4,5204.41 5404.17,5148.92 5401.9,5117.4C5401.9,5117.4 5362.95,5125.27 5318.46,5092.17C5316.57,5090.76 5314.61,5089.44 5312.59,5088.21C5300.85,5081.03 5256.74,5048 5317.73,4985.87C5317.73,4985.87 5305.75,4995.84 5294.54,5016.24C5294.54,5016.24 5277.96,5002.44 5290.12,4980.08L5311.28,4941.39L5294.24,4972.38C5294.24,4972.38 5229.63,4974.22 5176.97,5011.79Z" style="fill:rgb(29,35,57);"/>
                        <path d="M5280.3,4981.73C5273.49,4998.62 5279.73,5011.07 5284.65,5017.49C5279.53,5028.53 5277.74,5038.34 5277.98,5046.89C5278.74,5074.19 5300.11,5090.09 5308.26,5095.07C5308.26,5095.07 5308.26,5095.07 5308.27,5095.07C5310.07,5096.17 5311.82,5097.35 5313.51,5098.61C5347.56,5123.94 5378.68,5126.75 5393.84,5126.26C5392.89,5157.16 5377.61,5201.86 5377.61,5201.86C5377.58,5201.94 5377.56,5202.01 5377.53,5202.08C5364.48,5244.71 5317.66,5260.81 5317.66,5260.81C5313.88,5262.12 5311.61,5265.93 5312.3,5269.81C5312.99,5273.69 5316.43,5276.52 5320.44,5276.49L5502.6,5275.47C5506.07,5275.45 5509.16,5273.29 5510.31,5270.07C5512.32,5264.44 5514.07,5247.88 5515.27,5227.43C5517.45,5190.14 5518.36,5139.32 5518.62,5122.39C5527.26,5119.44 5539.64,5114.79 5549.11,5111.18C5559.29,5107.37 5568.09,5100.68 5574.41,5091.97C5574.42,5091.97 5576.94,5090.41 5577.23,5087.82C5589.95,5067.9 5593.74,5043.6 5587.51,5020.74C5587.51,5020.73 5587.51,5020.73 5587.51,5020.73C5580.93,4996.67 5568.13,4976.46 5566.69,4974.23C5507.21,4872.23 5439.1,4854.94 5437.4,4854.52C5389.52,4841.91 5341.38,4854.24 5336.37,4855.6C5290.23,4864.1 5254.1,4890.35 5227.44,4918.96C5187.88,4961.42 5169.31,5008.89 5169.31,5008.89C5168,5012.23 5169.08,5016.02 5171.97,5018.19C5174.86,5020.37 5178.86,5020.43 5181.8,5018.32C5217.55,4992.82 5259.03,4984.44 5280.3,4981.73ZM5562.39,5093.42C5562.57,5093.57 5562.76,5093.72 5562.95,5093.85L5562.38,5093.43C5557.77,5097.88 5552.25,5101.36 5546.16,5103.64C5534.49,5108.09 5518.3,5114.16 5510.48,5116.54C5510.48,5116.54 5508.91,5249.6 5502.56,5267.4L5320.39,5268.42C5320.39,5268.42 5371.2,5250.78 5385.4,5204.41C5385.4,5204.41 5404.17,5148.92 5401.9,5117.4C5401.9,5117.4 5362.95,5125.27 5318.46,5092.17C5316.57,5090.76 5314.61,5089.44 5312.59,5088.21C5302.93,5082.31 5271.36,5058.89 5294.45,5016.17C5293.17,5015.05 5278.48,5001.48 5290.12,4980.08L5311.28,4941.39L5294.24,4972.38C5294.24,4972.38 5229.63,4974.22 5176.97,5011.79C5176.97,5011.79 5227.18,4883.69 5338.24,4863.47C5338.24,4863.47 5386.94,4849.56 5435.36,4862.34C5435.36,4862.34 5501.57,4878.68 5559.66,4978.41C5559.66,4978.41 5572.94,4998.56 5579.57,5022.82C5585.61,5044.97 5581.26,5068.61 5567.72,5087.28C5567.72,5087.28 5567.72,5087.28 5567.72,5087.28C5566.12,5089.49 5564.34,5091.54 5562.39,5093.42ZM5300.56,5006.29C5309.65,4992.59 5317.73,4985.87 5317.73,4985.87C5310.67,4993.07 5305.02,4999.87 5300.56,5006.29C5298.57,5009.28 5296.54,5012.59 5294.54,5016.24L5294.45,5016.17C5296.17,5012.98 5298.2,5009.69 5300.56,5006.29Z"/>
                    </g>
                    <g transform="matrix(1.20463,0,0,1.09526,-6146.53,-1138.67)">
                        <path d="M5294.54,5016.24C5294.54,5016.24 5307.35,4993.16 5317.73,4985.87" style="fill:rgb(29,35,57);stroke:black;stroke-width:7.34px;stroke-linejoin:round;"/>
                    </g>
                    <g transform="matrix(1.88879,0,0,1.5455,-9768.84,-3443.86)">
                        <path d="M5293.4,5018.43C5293.4,5018.43 5301.06,5002.89 5311.45,4995.6" style="fill:rgb(29,35,57);stroke:black;stroke-width:4.88px;stroke-linejoin:round;"/>
                    </g>
                </g>
                <g transform="matrix(2.06948,0,0,2.28547,-10640.1,-7253.73)">
                    <path d="M5482.19,4937.54C5476.11,4932.77 5467.79,4931.81 5460.74,4935.06C5436.98,4946.43 5378.79,4978.65 5332.06,5040.21C5332.06,5040.21 5318.07,5080.62 5392.42,5096.94C5405.1,5099.72 5423.29,5066.39 5441.63,5067.45C5441.63,5067.45 5457.1,5084.18 5477.48,5081.89C5505.55,5078.74 5539.21,5089.4 5549.81,5067.85C5550.06,5067.33 5550.39,5066.84 5550.77,5066.41C5553.83,5062.62 5565.75,5044.75 5546.34,5017.5C5546.34,5017.5 5516.93,4964.69 5482.19,4937.54Z" style="fill:rgb(255,19,37);"/>
                    <path d="M5556.72,5071.24L5556.82,5071.13C5560.43,5066.66 5575.56,5045.55 5552.9,5013.47C5550.15,5008.62 5521.03,4958.2 5487.01,4931.6C5478.63,4925.02 5467.16,4923.7 5457.45,4928.19C5457.42,4928.2 5457.39,4928.22 5457.36,4928.23C5433.08,4939.85 5373.61,4972.77 5325.86,5035.67C5325.38,5036.31 5325,5037.01 5324.74,5037.77C5324.74,5037.77 5320.09,5050.46 5327.36,5065.68C5333.73,5079.03 5349.86,5095.38 5390.73,5104.35C5394.35,5105.14 5398.26,5104.58 5402.34,5102.6C5406.32,5100.66 5410.68,5097.15 5415.2,5093.02C5419.89,5088.74 5424.85,5083.75 5429.98,5079.94C5432.9,5077.76 5435.78,5075.84 5438.74,5075.23C5444.78,5080.48 5459.88,5091.51 5478.35,5089.44C5495.24,5087.55 5514.15,5090.62 5528.86,5088.73C5541.39,5087.12 5551.27,5082.25 5556.72,5071.24ZM5482.19,4937.54C5476.11,4932.77 5467.79,4931.81 5460.74,4935.06C5436.98,4946.43 5378.79,4978.65 5332.06,5040.21C5332.06,5040.21 5318.07,5080.62 5392.42,5096.94C5405.1,5099.72 5423.29,5066.39 5441.63,5067.45C5441.63,5067.45 5457.1,5084.18 5477.48,5081.89C5505.55,5078.74 5539.21,5089.4 5549.81,5067.85C5550.06,5067.33 5550.39,5066.84 5550.77,5066.41C5553.83,5062.62 5565.75,5044.75 5546.34,5017.5C5546.34,5017.5 5516.93,4964.69 5482.19,4937.54ZM5487,4931.6L5487.02,4931.61L5487,4931.6Z"/>
                </g>
                <g transform="matrix(2.06948,0,0,2.18087,-10640.1,-6717.64)">
                    <path d="M5524.33,5046.39C5524.33,5046.39 5537.44,5031.08 5540.69,5011C5541.87,5003.79 5539.8,4996.43 5535.08,4990.98C5525.81,4980.23 5508.2,4959.88 5497.94,4948.03C5492.65,4941.91 5486.63,4936.5 5480.04,4931.91C5479.6,4931.61 5479.17,4931.3 5478.74,4931C5474.09,4927.77 5468.11,4927.34 5463.07,4929.89C5453.79,4934.58 5438.62,4942.24 5428.73,4947.24C5422.28,4950.5 5416.24,4954.57 5410.77,4959.36C5400.66,4968.2 5383.69,4983.04 5373.96,4991.55C5368.99,4995.89 5364.32,5000.57 5359.98,5005.57C5357.16,5008.81 5354.03,5012.42 5351.9,5014.86C5350.05,5016.99 5348.81,5019.61 5348.31,5022.42C5346.54,5032.34 5345.49,5055.23 5371.05,5062.68C5371.05,5062.68 5337.31,5097.88 5387.16,5104.48C5387.16,5104.48 5419.97,5109.71 5432.93,5109.03C5432.93,5109.03 5432.92,5119.86 5432.92,5121.09C5432.92,5121.23 5432.94,5121.37 5432.98,5121.51C5433.45,5122.67 5436.09,5126.84 5450.98,5124.42C5452.87,5124.12 5454.28,5122.45 5454.28,5120.47C5454.28,5116.11 5454.28,5109 5454.28,5109L5466.42,5109.36C5466.42,5109.36 5466.33,5117.84 5466.28,5121.48C5466.28,5121.92 5466.44,5122.33 5466.74,5122.64C5467.03,5122.95 5467.44,5123.12 5467.86,5123.12C5471.45,5123.11 5480.19,5123.09 5484.11,5123.08C5485.2,5123.07 5486.09,5122.16 5486.09,5121.04C5486.09,5117.36 5486.09,5109.96 5486.09,5109.96L5497.59,5109.67L5497.59,5121.03C5497.59,5121.37 5497.72,5121.7 5497.96,5121.94C5498.19,5122.18 5498.51,5122.32 5498.85,5122.32C5501.97,5122.32 5510.08,5122.32 5513.37,5122.32C5514.17,5122.32 5514.83,5121.68 5514.88,5120.86C5515.19,5115.4 5516.28,5096.54 5516.28,5096.54C5516.28,5096.54 5531.08,5092.58 5535.69,5084.34C5535.69,5084.34 5545.26,5067.37 5524.33,5046.39Z" style="fill:rgb(255,246,236);"/>
                    <path d="M5531.35,5046.02C5535.7,5039.87 5543.46,5027.16 5545.94,5011.9C5547.37,5003.06 5544.84,4994.03 5539.06,4987.34C5529.78,4976.59 5512.17,4956.24 5501.91,4944.39C5496.32,4937.93 5489.97,4932.22 5483.02,4927.38C5482.58,4927.07 5482.15,4926.77 5481.72,4926.47C5475.49,4922.13 5467.48,4921.56 5460.73,4924.97C5451.45,4929.66 5436.28,4937.33 5426.39,4942.32C5419.54,4945.78 5413.14,4950.1 5407.32,4955.19C5397.22,4964.03 5380.24,4978.87 5370.52,4987.38C5365.37,4991.88 5360.53,4996.74 5356.02,5001.92C5353.2,5005.16 5350.07,5008.77 5347.94,5011.21C5345.44,5014.09 5343.76,5017.63 5343.08,5021.43C5343.08,5021.43 5343.08,5021.43 5343.08,5021.43C5341.22,5031.87 5340.2,5054.61 5362.21,5065.15C5360.4,5067.74 5358.45,5070.95 5357,5074.42C5354.2,5081.13 5353.35,5088.71 5357.11,5095.31C5360.69,5101.6 5369.03,5107.59 5386.43,5109.9C5387.94,5110.14 5412.8,5114.01 5427.61,5114.51C5427.61,5114.51 5427.61,5121.09 5427.61,5121.09C5427.61,5121.73 5427.69,5122.36 5427.86,5122.98C5427.92,5123.19 5427.99,5123.41 5428.07,5123.61C5428.71,5125.18 5431.8,5133.08 5451.79,5129.82C5456.28,5129.12 5459.59,5125.15 5459.59,5120.47C5459.59,5118.76 5459.6,5116.61 5459.6,5114.64C5459.6,5114.64 5461.05,5114.68 5461.05,5114.68C5461.05,5114.68 5460.97,5121.42 5460.97,5121.42C5460.95,5123.32 5461.67,5125.14 5462.96,5126.49C5464.26,5127.84 5466.03,5128.6 5467.87,5128.59L5484.13,5128.55C5488.15,5128.54 5491.4,5125.18 5491.4,5121.04C5491.4,5121.04 5491.4,5115.3 5491.4,5115.3C5491.4,5115.3 5492.27,5115.28 5492.27,5115.28C5492.27,5115.28 5492.27,5121.03 5492.27,5121.03C5492.27,5122.82 5492.97,5124.54 5494.2,5125.81C5495.43,5127.08 5497.1,5127.79 5498.85,5127.79C5501.97,5127.79 5510.08,5127.79 5513.37,5127.79C5516.98,5127.79 5519.97,5124.9 5520.19,5121.18L5521.37,5100.62C5523.58,5099.82 5526.49,5098.62 5529.39,5097.01C5533.77,5094.58 5537.99,5091.19 5540.3,5087.08C5540.3,5087.08 5544.79,5079.5 5542.59,5067.78C5541.43,5061.6 5538.38,5054.11 5531.35,5046.02ZM5524.33,5046.39C5524.33,5046.39 5537.44,5031.08 5540.69,5011C5541.87,5003.79 5539.8,4996.43 5535.08,4990.98C5525.81,4980.23 5508.2,4959.88 5497.94,4948.03C5492.65,4941.91 5486.63,4936.5 5480.04,4931.91C5479.6,4931.61 5479.17,4931.3 5478.74,4931C5474.09,4927.77 5468.11,4927.34 5463.07,4929.89C5453.79,4934.58 5438.62,4942.24 5428.73,4947.24C5422.28,4950.5 5416.24,4954.57 5410.77,4959.36C5400.66,4968.2 5383.69,4983.04 5373.96,4991.55C5368.99,4995.89 5364.32,5000.57 5359.98,5005.57C5357.16,5008.81 5354.03,5012.42 5351.9,5014.86C5350.05,5016.99 5348.81,5019.61 5348.31,5022.42C5346.54,5032.34 5345.49,5055.23 5371.05,5062.68C5371.05,5062.68 5337.31,5097.88 5387.16,5104.48C5387.16,5104.48 5419.97,5109.71 5432.93,5109.03C5432.93,5109.03 5432.92,5119.86 5432.92,5121.09C5432.92,5121.23 5432.94,5121.37 5432.98,5121.51C5433.45,5122.67 5436.09,5126.84 5450.98,5124.42C5452.87,5124.12 5454.28,5122.45 5454.28,5120.47C5454.28,5116.11 5454.28,5109 5454.28,5109L5466.42,5109.36C5466.42,5109.36 5466.33,5117.84 5466.28,5121.48C5466.28,5121.92 5466.44,5122.33 5466.74,5122.64C5467.03,5122.95 5467.44,5123.12 5467.86,5123.12C5471.45,5123.11 5480.19,5123.09 5484.11,5123.08C5485.2,5123.07 5486.09,5122.16 5486.09,5121.04C5486.09,5117.36 5486.09,5109.96 5486.09,5109.96L5497.59,5109.67C5497.59,5109.67 5497.59,5117.8 5497.59,5121.03C5497.59,5121.37 5497.72,5121.7 5497.96,5121.94C5498.19,5122.18 5498.51,5122.32 5498.85,5122.32C5501.97,5122.32 5510.08,5122.32 5513.37,5122.32C5514.17,5122.32 5514.83,5121.68 5514.88,5120.86C5515.19,5115.4 5516.28,5096.54 5516.28,5096.54C5516.28,5096.54 5531.08,5092.58 5535.69,5084.34C5535.69,5084.34 5545.26,5067.37 5524.33,5046.39Z"/>
                </g>
                <g transform="matrix(2.4059,0,0,2.30197,-12488.8,-7333.52)">
                    <path d="M5479.98,5050.53L5489.56,5062.68L5470.39,5062.68L5479.98,5050.53Z"/>
                    <path d="M5481.37,5049.11C5481.02,5048.66 5480.51,5048.4 5479.98,5048.4C5479.45,5048.4 5478.94,5048.66 5478.58,5049.11L5469,5061.27C5468.51,5061.89 5468.38,5062.78 5468.68,5063.55C5468.99,5064.31 5469.65,5064.8 5470.39,5064.8L5489.56,5064.8C5490.3,5064.8 5490.97,5064.31 5491.27,5063.55C5491.57,5062.78 5491.45,5061.89 5490.96,5061.27L5481.37,5049.11ZM5479.98,5050.53L5489.56,5062.68L5470.39,5062.68L5479.98,5050.53Z"/>
                </g>
                <g transform="matrix(2.06948,0,0,2.10606,-171.949,-4961.46)">
                    <g transform="matrix(0.868066,0,0,1.03101,-4342.4,-817.915)">
                        <ellipse cx="5420.22" cy="5016.75" rx="26.551" ry="23.334" style="fill:rgb(29,35,57);"/>
                        <path d="M5420.22,4986.42C5401.22,4986.42 5385.87,5000.05 5385.87,5016.75C5385.87,5033.45 5401.22,5047.08 5420.22,5047.08C5439.22,5047.08 5454.56,5033.45 5454.56,5016.75C5454.56,5000.05 5439.22,4986.42 5420.22,4986.42ZM5420.22,4993.42C5434.87,4993.42 5446.77,5003.87 5446.77,5016.75C5446.77,5029.63 5434.87,5040.09 5420.22,5040.09C5405.56,5040.09 5393.66,5029.63 5393.66,5016.75C5393.66,5003.87 5405.56,4993.42 5420.22,4993.42Z"/>
                    </g>
                    <g transform="matrix(1.00607,0,0,1.17666,-5091.02,-1549.02)">
                        <rect x="5381.73" y="5008.28" width="77.756" height="10.224" style="fill:rgb(0,3,5);"/>
                    </g>
                    <g transform="matrix(0.806252,0,0,1.08519,-3986.15,-1129.21)">
                        <ellipse cx="5499.21" cy="5053.18" rx="18.675" ry="23.414" style="fill:rgb(29,35,57);"/>
                        <path d="M5499.21,5023.11C5492.77,5023.11 5486.66,5025.5 5481.83,5029.94C5476.11,5035.2 5472.15,5043.61 5472.15,5053.18C5472.15,5062.74 5476.11,5071.15 5481.83,5076.41C5486.66,5080.85 5492.77,5083.24 5499.21,5083.24C5505.66,5083.24 5511.77,5080.85 5516.6,5076.41C5522.31,5071.15 5526.28,5062.74 5526.28,5053.18C5526.28,5043.61 5522.31,5035.2 5516.6,5029.94C5511.77,5025.5 5505.66,5023.11 5499.21,5023.11ZM5499.21,5029.76C5509.52,5029.76 5517.89,5040.25 5517.89,5053.18C5517.89,5066.1 5509.52,5076.59 5499.21,5076.59C5488.91,5076.59 5480.54,5066.1 5480.54,5053.18C5480.54,5040.25 5488.91,5029.76 5499.21,5029.76Z"/>
                    </g>
                    <g transform="matrix(0.755592,0,0,1.17666,-3648.93,-1549.02)">
                        <rect x="5381.73" y="5008.28" width="77.756" height="10.224" style="fill:rgb(0,3,5);"/>
                    </g>
                    <g transform="matrix(0.999997,0,0,1.14386,-5060.38,-1385.45)">
                        <path d="M5460.73,4988.76L5420.57,4987.97C5408.54,4991.72 5396.94,4999.73 5385.47,5008.87L5460.73,5008.87L5460.73,4988.76Z" style="fill:rgb(255,246,236);"/>
                    </g>
                    <g transform="matrix(0.701803,0,0,1.14386,-3359.82,-1385.47)">
                        <path d="M5446.66,4988.77C5426.27,4986.77 5408.26,4988.79 5391.2,4992.43L5385.47,5008.87L5460.73,5008.87L5446.66,4988.77Z" style="fill:rgb(255,246,236);"/>
                    </g>
                </g>
            </g>
        </g>
    </g>
</svg>
